<?xml version="1.0" encoding="UTF-8"?>
<svg version="1.1" xmlns="http://www.w3.org/2000/svg" width="500" height="500">
<path d="M0 0 C1.37478516 0.01740234 1.37478516 0.01740234 2.77734375 0.03515625 C3.69644531 0.04417969 4.61554688 0.05320313 5.5625 0.0625 C6.27277344 0.07410156 6.98304688 0.08570313 7.71484375 0.09765625 C8.27171875 1.10183594 8.82859375 2.10601562 9.40234375 3.140625 C13.62713429 10.72489878 17.96294533 18.19877941 22.55859375 25.56640625 C25.16607604 29.79131176 27.61961289 34.10411132 30.08984375 38.41015625 C34.0391098 45.28750429 38.11381971 52.06506584 42.36669922 58.7590332 C44.9371158 62.80996199 47.36153858 66.91638511 49.71484375 71.09765625 C50.70484375 71.09765625 51.69484375 71.09765625 52.71484375 71.09765625 C52.91980469 70.31261719 53.12476563 69.52757812 53.3359375 68.71875 C55.21288841 63.78975993 57.95304779 59.59810647 60.77734375 55.16015625 C61.95006742 53.29350165 63.1219365 51.42630991 64.29296875 49.55859375 C64.87111328 48.63916992 65.44925781 47.71974609 66.04492188 46.77246094 C68.41844743 42.97065597 70.73096874 39.13391675 73.02734375 35.28515625 C73.59497437 34.33491577 73.59497437 34.33491577 74.17407227 33.36547852 C75.02232986 31.94366597 75.86882586 30.52080262 76.71484375 29.09765625 C75.93367188 29.16984375 75.1525 29.24203125 74.34765625 29.31640625 C65.52853171 30.02350755 56.74978829 30.20807856 47.90234375 30.22265625 C46.73912598 30.22716797 45.5759082 30.23167969 44.37744141 30.23632812 C42.7404126 30.23342773 42.7404126 30.23342773 41.0703125 30.23046875 C40.08699951 30.22934082 39.10368652 30.22821289 38.09057617 30.22705078 C35.71484375 30.09765625 35.71484375 30.09765625 33.71484375 29.09765625 C34.35989971 25.61435409 35.69701643 23.00332759 37.71484375 20.09765625 C38.37484375 20.09765625 39.03484375 20.09765625 39.71484375 20.09765625 C40.06955246 19.09895508 40.06955246 19.09895508 40.431427 18.08007812 C43.32449239 11.35713211 47.59385771 2.38241881 54.60599518 -0.74609375 C59.73699811 -1.9957614 64.9280911 -1.65392502 70.16015625 -1.40234375 C71.82347119 -1.37685119 73.48689834 -1.3579204 75.15036011 -1.34521484 C79.49675544 -1.29398885 83.83550453 -1.15192042 88.17901611 -0.99060059 C92.61966575 -0.84330894 97.06144092 -0.78834534 101.50390625 -0.72265625 C107.96781438 -0.61181539 114.42990215 -0.47326709 120.89111328 -0.25390625 C122.18808136 -0.21088379 123.48504944 -0.16786133 124.82131958 -0.12353516 C127.71484375 0.09765625 127.71484375 0.09765625 128.71484375 1.09765625 C128.81389061 3.18362572 128.8411671 5.27300859 128.84182739 7.36132812 C128.84338738 8.02301247 128.84494737 8.68469681 128.84655464 9.36643219 C128.85056646 11.59977905 128.84737431 13.8330588 128.84423828 16.06640625 C128.84559224 17.66097046 128.84737214 19.25553436 128.84954834 20.85009766 C128.8541233 25.19295004 128.85233286 29.53577877 128.84916925 33.87863159 C128.84664597 38.41322902 128.8489831 42.94782437 128.85055542 47.48242188 C128.85237721 55.09896205 128.84997056 62.71549254 128.84521484 70.33203125 C128.83977221 79.15081813 128.84153486 87.9695819 128.84704125 96.78836823 C128.85157211 104.34588062 128.85222306 111.90338604 128.84960258 119.46089935 C128.84803966 123.98085408 128.84784645 128.50079792 128.85113907 133.02075195 C128.8540174 137.26911507 128.8520428 141.51744824 128.84624481 145.76580811 C128.84491701 147.32956899 128.84531167 148.89333238 128.84750748 150.45709229 C128.8502182 152.58275757 128.84683886 154.70832539 128.84182739 156.83398438 C128.84126185 158.62261902 128.84126185 158.62261902 128.84068489 160.4473877 C128.71484375 163.09765625 128.71484375 163.09765625 127.71484375 164.09765625 C125.33915855 164.18605295 122.99275701 164.2129593 120.6171875 164.1953125 C119.55389977 164.19319008 119.55389977 164.19319008 118.46913147 164.19102478 C116.19682663 164.18541068 113.924619 164.17285588 111.65234375 164.16015625 C110.11523579 164.15514306 108.5781263 164.15057984 107.04101562 164.14648438 C103.26558733 164.13543667 99.49023204 164.11816266 95.71484375 164.09765625 C94.77330377 158.54801214 94.57789907 153.20477546 94.60131836 147.58227539 C94.60117233 146.654664 94.60102631 145.72705261 94.60087585 144.77133179 C94.6015689 141.72513436 94.6093327 138.67899916 94.6171875 135.6328125 C94.61905384 133.51289402 94.62047672 131.3929751 94.62147522 129.27305603 C94.62528337 123.70822955 94.63509908 118.1434294 94.6461792 112.57861328 C94.65642996 106.89420935 94.66098068 101.20980114 94.66601562 95.52539062 C94.67672292 84.38280097 94.69377884 73.2402308 94.71484375 62.09765625 C92.40077216 65.72165527 90.08885355 69.3470228 87.77734375 72.97265625 C87.11798828 74.00519531 86.45863281 75.03773438 85.77929688 76.1015625 C85.15087891 77.08769531 84.52246094 78.07382813 83.875 79.08984375 C83.00307007 80.45665283 83.00307007 80.45665283 82.11352539 81.85107422 C80.71512633 84.01952764 80.71512633 84.01952764 79.71484375 86.09765625 C79.05484375 86.09765625 78.39484375 86.09765625 77.71484375 86.09765625 C77.55423462 86.94408691 77.55423462 86.94408691 77.39038086 87.80761719 C76.60244903 90.47866907 75.42055025 92.40119155 73.90625 94.73828125 C73.32858887 95.63716064 72.75092773 96.53604004 72.15576172 97.4621582 C71.53588379 98.41437256 70.91600586 99.36658691 70.27734375 100.34765625 C68.99905122 102.32490777 67.72171483 104.30277775 66.4453125 106.28125 C65.81286621 107.26077637 65.18041992 108.24030273 64.52880859 109.24951172 C62.88177849 111.83554849 61.28016795 114.44119261 59.703125 117.0703125 C59.25702881 117.80926758 58.81093262 118.54822266 58.35131836 119.30957031 C57.52865404 120.67945686 56.71518237 122.05491873 55.91235352 123.43652344 C53.21363563 127.89625403 53.21363563 127.89625403 50.44140625 129.015625 C49.87164062 129.04269531 49.301875 129.06976563 48.71484375 129.09765625 C45.43223811 124.33607444 42.33385498 119.51232418 39.453125 114.49609375 C35.91872779 108.4043327 32.21992936 102.43017283 28.46484375 96.47265625 C23.26769325 88.19571286 18.1140508 79.89550409 13.04003906 71.54248047 C11.30856813 68.69386612 9.56428106 65.87181221 7.71484375 63.09765625 C7.38484375 96.09765625 7.05484375 129.09765625 6.71484375 163.09765625 C2.22928619 161.97626686 1.46029146 161.10970333 -1.47265625 157.72265625 C-2.25640625 156.82289063 -3.04015625 155.923125 -3.84765625 154.99609375 C-7.01354836 151.23152333 -10.11201542 147.41515286 -13.19921875 143.5859375 C-14.99706603 141.44131443 -16.83603536 139.47594542 -18.84765625 137.53515625 C-19.65203125 136.73078125 -20.45640625 135.92640625 -21.28515625 135.09765625 C-21.28515625 134.43765625 -21.28515625 133.77765625 -21.28515625 133.09765625 C-21.94515625 133.09765625 -22.60515625 133.09765625 -23.28515625 133.09765625 C-26.40455108 130.24060987 -27.54491504 127.92964616 -27.86711121 123.80766296 C-27.92421621 122.0737426 -27.95943191 120.33901654 -27.97729492 118.60424805 C-28.01431267 117.17866829 -28.01431267 117.17866829 -28.05207825 115.72428894 C-28.12574672 112.5817762 -28.1676657 109.44003977 -28.203125 106.296875 C-28.21817896 105.21817453 -28.23323292 104.13947407 -28.24874306 103.02808571 C-28.32628214 97.31032153 -28.37841571 91.5929458 -28.41088867 85.87475586 C-28.44941472 80.00332559 -28.57640632 74.13738448 -28.72437572 68.26784039 C-28.82209795 63.72485526 -28.85181447 59.18314467 -28.86406898 54.63920021 C-28.88156929 52.47780895 -28.9240761 50.31645428 -28.99336815 48.15610313 C-29.30972187 37.61263184 -29.32838255 29.31072948 -22.06881428 21.11400318 C-19.51241254 18.53288913 -16.85355384 16.11324033 -14.10093117 13.74381447 C-11.37982398 11.27689364 -9.1887787 8.53800306 -6.91015625 5.66015625 C-6.22179687 4.79519531 -5.5334375 3.93023437 -4.82421875 3.0390625 C-4.31632812 2.39839844 -3.8084375 1.75773438 -3.28515625 1.09765625 C-2.28515625 0.09765625 -2.28515625 0.09765625 0 0 Z " fill="#52C873" transform="translate(277.28515625,163.90234375)"/>
<path d="M0 0 C11.22 0 22.44 0 34 0 C35.45550803 2.91101606 35.1651099 5.49317198 35.20532227 8.74462891 C35.21522186 9.43742447 35.22512146 10.13022003 35.23532104 10.8440094 C35.26695497 13.13815878 35.29170086 15.43232889 35.31640625 17.7265625 C35.33697415 19.31554712 35.35797058 20.90452624 35.37937927 22.49349976 C35.43461691 26.67903195 35.48401869 30.86461366 35.53222656 35.05023193 C35.58242926 39.3199912 35.63812174 43.58967842 35.69335938 47.859375 C35.80096163 56.23952245 35.90240199 64.6197301 36 73 C37.28324231 71.5616595 38.56573081 70.12264645 39.84790039 68.68334961 C40.5621669 67.88207138 41.27643341 67.08079315 42.01234436 66.25523376 C44.22502555 63.74468151 46.34657826 61.17513321 48.4375 58.5625 C51.38598373 54.92502351 54.4069117 51.39671879 57.5625 47.9375 C60.41145966 44.80903828 63.13302445 41.63721107 65.75 38.3125 C69.18821678 33.94781762 72.78474809 29.74703804 76.4375 25.5625 C81.02650018 20.30464166 85.52213928 14.99639183 89.90234375 9.5625 C90.59457031 8.716875 91.28679687 7.87125 92 7 C92.58481392 6.13005653 92.58481392 6.13005653 93.18144226 5.24253845 C95.18790195 2.48322345 96.76249899 0.35945122 100.11967468 -0.61569214 C102.62579622 -0.80860862 105.04334527 -0.78838271 107.5546875 -0.68359375 C108.45623566 -0.67368912 109.35778381 -0.66378448 110.28665161 -0.65357971 C113.1511271 -0.6145592 116.01169386 -0.52676778 118.875 -0.4375 C120.82286111 -0.40236986 122.77078261 -0.37043383 124.71875 -0.34179688 C129.48066043 -0.26483833 134.23966885 -0.14414686 139 0 C138.26459235 3.33384804 137.30130525 5.42253812 135 8 C134.34 8 133.68 8 133 8 C132.64421875 8.81210938 132.64421875 8.81210938 132.28125 9.640625 C130.65652243 12.63250137 128.6498123 15.11159399 126.5 17.75 C125.7059375 18.73484375 124.911875 19.7196875 124.09375 20.734375 C123.4028125 21.48203125 122.711875 22.2296875 122 23 C121.34 23 120.68 23 120 23 C119.731875 23.5775 119.46375 24.155 119.1875 24.75 C117.97070811 27.05550043 116.69666121 29.02056192 115 31 C114.34 31 113.68 31 113 31 C112.59116577 31.88534424 112.59116577 31.88534424 112.17407227 32.78857422 C111.0299285 34.94362812 109.82057614 36.5558293 108.21484375 38.3828125 C107.68439453 38.99253906 107.15394531 39.60226563 106.60742188 40.23046875 C106.05634766 40.85566406 105.50527344 41.48085937 104.9375 42.125 C103.8406326 43.37601485 102.74549606 44.62855005 101.65234375 45.8828125 C101.16757568 46.43340332 100.68280762 46.98399414 100.18334961 47.55126953 C98.90366815 49.00977737 98.90366815 49.00977737 98 51 C97.34 51 96.68 51 96 51 C95.71125 51.598125 95.4225 52.19625 95.125 52.8125 C94 55 94 55 92 58 C91.34 58 90.68 58 90 58 C89.73703125 58.58265625 89.4740625 59.1653125 89.203125 59.765625 C87.94288449 62.10607167 86.54380311 63.79459301 84.75 65.75 C81.24433954 69.65987707 78.08379089 73.75272756 75 78 C75.66 79.32 76.32 80.64 77 82 C77.66 82 78.32 82 79 82 C80.47769218 83.63432755 81.88269319 85.33476368 83.25 87.0625 C85.9594861 90.45920632 88.67800145 93.81313648 91.5625 97.0625 C94 100 94 100 94 102 C94.66 102 95.32 102 96 102 C97.78389065 104.11123759 99.46362717 106.23291047 101.125 108.4375 C104.93927238 113.40178235 108.84740396 118.17984375 113.05859375 122.81640625 C115.95832962 126.07787979 118.67068725 129.48578422 121.4140625 132.87890625 C123.38288534 135.28340033 125.41069005 137.62943668 127.4609375 139.96484375 C128.35389526 140.98263916 128.35389526 140.98263916 129.26489258 142.02099609 C130.45056594 143.36753972 131.64042712 144.71040893 132.8347168 146.04931641 C137 150.78143573 137 150.78143573 137 153 C137.66 153 138.32 153 139 153 C140.54296875 154.64453125 140.54296875 154.64453125 142.1875 156.8125 C142.73792969 157.52019531 143.28835938 158.22789062 143.85546875 158.95703125 C144.23316406 159.63121094 144.61085938 160.30539062 145 161 C144.67 161.99 144.34 162.98 144 164 C138.50527797 164.29918905 133.01539369 164.51548819 127.5144043 164.65917969 C125.64865479 164.71912086 123.78345936 164.80071623 121.91967773 164.90527344 C105.60744873 165.79669983 105.60744873 165.79669983 100.35791016 161.41601562 C97.49082068 158.53204918 95.23594262 155.38948637 93 152 C92.41436279 151.25331055 91.82872559 150.50662109 91.2253418 149.73730469 C90 148 90 148 90 146 C89.34 146 88.68 146 88 146 C86.62508701 144.49212839 85.32635538 142.91460239 84.0625 141.3125 C83.25941406 140.30832031 82.45632812 139.30414063 81.62890625 138.26953125 C81.20109863 137.73408691 80.77329102 137.19864258 80.33251953 136.64697266 C78.1026625 133.89090532 75.79951517 131.197958 73.5 128.5 C69.96078887 124.3276785 66.43072825 120.14843807 62.9375 115.9375 C61.86822266 114.65166016 61.86822266 114.65166016 60.77734375 113.33984375 C59.20959932 111.27593406 58.05137162 109.35877675 57 107 C56.34 107 55.68 107 55 107 C54.67 106.34 54.34 105.68 54 105 C53.34 105 52.68 105 52 105 C51.67 105.66 51.34 106.32 51 107 C50.34 107 49.68 107 49 107 C49 107.66 49 108.32 49 109 C48.34 109 47.68 109 47 109 C46.76410156 109.5775 46.52820313 110.155 46.28515625 110.75 C44.73186916 113.46943272 42.79347036 114.9427803 40.4375 117 C33.59325962 124.46943541 34.81830717 133.45680038 35 143 C35.00817434 145.69416684 35.00403658 148.38810679 34.99829102 151.08227539 C34.99941155 152.74947465 35.01124162 154.41670864 35.03491211 156.08374023 C35.10434429 161.79131142 35.10434429 161.79131142 34 164 C29.31860746 164.02465288 24.63725241 164.04283739 19.95581055 164.05493164 C18.36205386 164.05997157 16.76830181 164.0668035 15.17456055 164.07543945 C12.88849747 164.08751999 10.60249533 164.09323155 8.31640625 164.09765625 C7.59973282 164.10281754 6.88305939 164.10797882 6.14466858 164.11329651 C4.42936328 164.11349263 2.71418734 164.06192007 1 164 C0 163 0 163 -0.12304783 160.33132076 C-0.12212604 159.1302245 -0.12120424 157.92912825 -0.12025452 156.69163513 C-0.12110894 156.02516167 -0.12196337 155.35868821 -0.12284368 154.67201859 C-0.12450035 152.42251366 -0.11897411 150.17308212 -0.11352539 147.92358398 C-0.11324353 146.31754559 -0.11340122 144.71150707 -0.1139679 143.10546875 C-0.11425593 138.73168933 -0.10835832 134.35793708 -0.10139394 129.984164 C-0.09516131 125.41840422 -0.09455667 120.85264387 -0.09336853 116.28688049 C-0.09025495 107.63478695 -0.08204119 98.98270597 -0.07201904 90.33061796 C-0.06085874 80.48314177 -0.05534766 70.63566499 -0.05032361 60.78818405 C-0.0398586 40.52544745 -0.02151279 20.26272809 0 0 Z " fill="#54C875" transform="translate(117,164)"/>
<path d="M0 0 C1.4540625 0.7425 1.4540625 0.7425 2.9375 1.5 C2.9375 2.16 2.9375 2.82 2.9375 3.5 C3.5975 3.5 4.2575 3.5 4.9375 3.5 C8.27509749 8.78452935 8.6711911 13.42666809 7.9375 19.5 C5.95841369 24.44771578 1.68270036 28.12739982 -3.0625 30.5 C-8.04763953 31.04693078 -11.93577341 31.0842286 -16.4375 28.75 C-23.74934139 22.48270738 -23.74934139 22.48270738 -24.30078125 17.23046875 C-24.51204895 9.99177003 -22.84489552 6.61965558 -18 1.1875 C-13.14041287 -3.04504363 -5.6308315 -2.43123478 0 0 Z " fill="#51C872" transform="translate(234.0625,227.5)"/>
<path d="M0 0 C9.76150988 -0.02312446 19.5230133 -0.04091561 29.28454494 -0.05181217 C33.81674094 -0.05704078 38.34891827 -0.06413801 42.88110352 -0.07543945 C47.2512283 -0.08626914 51.62133508 -0.09227701 55.99147224 -0.09487724 C57.66250963 -0.09673135 59.33354597 -0.10035168 61.00457573 -0.10573006 C63.33697551 -0.11294159 65.66929993 -0.1139909 68.00170898 -0.11352539 C68.6994191 -0.11712067 69.39712921 -0.12071594 70.11598206 -0.12442017 C74.88594784 -0.11405216 74.88594784 -0.11405216 76 1 C76.09904686 3.08596947 76.12632335 5.17535234 76.12698364 7.26367188 C76.12932363 8.25619839 76.12932363 8.25619839 76.13171089 9.26877594 C76.13572271 11.5021228 76.13253056 13.73540255 76.12939453 15.96875 C76.13074849 17.56331421 76.13252839 19.15787811 76.13470459 20.75244141 C76.13927955 25.09529379 76.13748911 29.43812252 76.1343255 33.78097534 C76.13180222 38.31557277 76.13413935 42.85016812 76.13571167 47.38476562 C76.13753346 55.0013058 76.13512681 62.61783629 76.13037109 70.234375 C76.12492846 79.05316188 76.12669111 87.87192565 76.1321975 96.69071198 C76.13672836 104.24822437 76.13737931 111.80572979 76.13475883 119.3632431 C76.13319591 123.88319783 76.1330027 128.40314167 76.13629532 132.9230957 C76.13917365 137.17145882 76.13719905 141.41979199 76.13140106 145.66815186 C76.13007326 147.23191274 76.13046792 148.79567613 76.13266373 150.35943604 C76.13537445 152.48510132 76.13199511 154.61066914 76.12698364 156.73632812 C76.1264181 158.52496277 76.1264181 158.52496277 76.12584114 160.34973145 C76 163 76 163 75 164 C72.6243148 164.0883967 70.27791326 164.11530305 67.90234375 164.09765625 C66.83905602 164.09553383 66.83905602 164.09553383 65.75428772 164.09336853 C63.48198288 164.08775443 61.20977525 164.07519963 58.9375 164.0625 C57.40039204 164.05748681 55.86328255 164.05292359 54.32617188 164.04882812 C50.55074358 164.03778042 46.77538829 164.02050641 43 164 C42.505 160.535 42.505 160.535 42 157 C42.99 157 43.98 157 45 157 C44.67 158.65 44.34 160.3 44 162 C53.9 162 63.8 162 74 162 C73.9278125 158.00261719 73.855625 154.00523437 73.78125 149.88671875 C73.68317698 144.15371347 73.59030598 138.42063209 73.5 132.6875 C73.48812275 131.9339901 73.4762455 131.18048019 73.46400833 130.40413666 C73.00547021 100.97756396 72.9128235 71.5548078 72.9375 42.125 C72.93835602 41.09675991 72.93921204 40.06851982 72.94009399 39.00912094 C72.9514303 26.33938721 72.97446765 13.66972163 73 1 C48.91 1 24.82 1 0 1 C0 0.67 0 0.34 0 0 Z " fill="#80D199" transform="translate(330,164)"/>
<path d="M0 0 C2.375 -0.125 2.375 -0.125 5 0 C7 2 7 2 7.125 4.625 C7.08375 5.40875 7.0425 6.1925 7 7 C6.01 6.01 5.02 5.02 4 4 C3.67 37 3.34 70 3 104 C-1.63532252 102.84116937 -2.66130714 101.58017798 -5.75 98.0625 C-6.54921875 97.16660156 -7.3484375 96.27070313 -8.171875 95.34765625 C-10 93 -10 93 -10 91 C-8.125 91.25 -8.125 91.25 -6 92 C-5.30062468 93.31647119 -4.63270867 94.65022151 -4 96 C-3.01 96.33 -2.02 96.66 -1 97 C0.18128424 86.41088472 0.1288258 75.87107778 0.09765625 65.234375 C0.09578743 63.34580523 0.09436572 61.45723498 0.09336853 59.56866455 C0.08957988 54.63684716 0.07978147 49.70505998 0.06866455 44.77325439 C0.05837123 39.7251425 0.05385406 34.67702565 0.04882812 29.62890625 C0.03815535 19.75259101 0.02112367 9.87629803 0 0 Z " fill="#A2E0B1" transform="translate(281,223)"/>
<path d="M0 0 C1.4540625 0.7425 1.4540625 0.7425 2.9375 1.5 C2.9375 2.16 2.9375 2.82 2.9375 3.5 C3.5975 3.5 4.2575 3.5 4.9375 3.5 C8.27509749 8.78452935 8.6711911 13.42666809 7.9375 19.5 C5.95841369 24.44771578 1.68270036 28.12739982 -3.0625 30.5 C-8.04763953 31.04693078 -11.93577341 31.0842286 -16.4375 28.75 C-23.74934139 22.48270738 -23.74934139 22.48270738 -24.30078125 17.23046875 C-24.51204895 9.99177003 -22.84489552 6.61965558 -18 1.1875 C-13.14041287 -3.04504363 -5.6308315 -2.43123478 0 0 Z M-20.0625 4.5 C-22.27560151 7.81965227 -22.33182201 10.69297001 -22.3125 14.625 C-22.31765625 15.67945313 -22.3228125 16.73390625 -22.328125 17.8203125 C-22.33335168 20.65175355 -22.33335168 20.65175355 -20.0625 22.5 C-19.0725 22.5 -18.0825 22.5 -17.0625 22.5 C-16.7325 24.15 -16.4025 25.8 -16.0625 27.5 C-14.31343341 27.69601608 -12.56318154 27.88147403 -10.8125 28.0625 C-9.83796875 28.16691406 -8.8634375 28.27132812 -7.859375 28.37890625 C-5.2993648 28.48974468 -3.48101841 28.27738092 -1.0625 27.5 C-1.0625 26.51 -1.0625 25.52 -1.0625 24.5 C-0.27875 24.438125 0.505 24.37625 1.3125 24.3125 C4.10849368 23.77985473 4.10849368 23.77985473 5.125 21.34375 C6.07030014 18.03519952 5.93726555 15.59786649 5.5625 12.1875 C5.45164063 11.11886719 5.34078125 10.05023438 5.2265625 8.94921875 C5.13117188 8.14097656 5.03578125 7.33273438 4.9375 6.5 C3.9475 6.5 2.9575 6.5 1.9375 6.5 C1.855 5.88125 1.7725 5.2625 1.6875 4.625 C1.13975552 2.37628053 1.13975552 2.37628053 -0.80859375 1.390625 C-7.74716837 -1.35113412 -14.28656983 0.16805237 -20.0625 4.5 Z " fill="#81CE97" transform="translate(234.0625,227.5)"/>
<path d="M0 0 C0.33 0 0.66 0 1 0 C1.02312446 9.76150988 1.04091561 19.5230133 1.05181217 29.28454494 C1.05704078 33.81674094 1.06413801 38.34891827 1.07543945 42.88110352 C1.08626914 47.2512283 1.09227701 51.62133508 1.09487724 55.99147224 C1.09673135 57.66250963 1.10035168 59.33354597 1.10573006 61.00457573 C1.11294159 63.33697551 1.1139909 65.66929993 1.11352539 68.00170898 C1.11712067 68.6994191 1.12071594 69.39712921 1.12442017 70.11598206 C1.11405216 74.88594784 1.11405216 74.88594784 0 76 C-2.3756852 76.0883967 -4.72208674 76.11530305 -7.09765625 76.09765625 C-8.16094398 76.09553383 -8.16094398 76.09553383 -9.24571228 76.09336853 C-11.51801712 76.08775443 -13.79022475 76.07519963 -16.0625 76.0625 C-17.59960796 76.05748681 -19.13671745 76.05292359 -20.67382812 76.04882812 C-24.44925642 76.03778042 -28.22461171 76.02050641 -32 76 C-32.33 73.69 -32.66 71.38 -33 69 C-32.01 69 -31.02 69 -30 69 C-30.33 70.65 -30.66 72.3 -31 74 C-21.1 74 -11.2 74 -1 74 C-1.00785522 70.85065918 -1.00785522 70.85065918 -1.01586914 67.63769531 C-1.03243905 60.70068492 -1.04348488 53.76367365 -1.05181217 46.82664871 C-1.05703071 42.62074995 -1.06410971 38.41487147 -1.07543945 34.20898438 C-1.08630486 30.15007071 -1.0922846 26.09117654 -1.09487724 22.03224945 C-1.09672489 20.48370812 -1.10033286 18.93516785 -1.10573006 17.38663483 C-1.11298894 15.21769402 -1.11398889 13.04883381 -1.11352539 10.87988281 C-1.115746 9.64522278 -1.11796661 8.41056274 -1.12025452 7.13848877 C-1.02106373 4.54973623 -0.77070869 2.45487287 0 0 Z " fill="#8BCEA1" transform="translate(405,252)"/>
<path d="M0 0 C0.33 0 0.66 0 1 0 C1.68665 6.94006963 2.08425241 13.81945381 2.05859375 20.79296875 C2.05705795 21.55348038 2.05552216 22.313992 2.05393982 23.09754944 C2.01387299 33.5320977 1.82272115 43.96511266 1.62768555 54.39770508 C1.56216241 57.95583231 1.50269992 61.51403056 1.44335938 65.07226562 C1.4014118 67.36979845 1.35910676 69.66732479 1.31640625 71.96484375 C1.29969376 73.01091293 1.28298126 74.05698212 1.26576233 75.13475037 C1.13321545 81.79472055 0.69361093 88.37498849 0 95 C-0.33 95 -0.66 95 -1 95 C-1.02314458 83.05650588 -1.04092592 71.11301708 -1.05181217 59.16950512 C-1.05703635 53.6239817 -1.06412561 48.07847359 -1.07543945 42.53295898 C-1.08628478 37.18376324 -1.09228035 31.83458225 -1.09487724 26.48537636 C-1.09672851 24.4419869 -1.10034344 22.39859827 -1.10573006 20.35521507 C-1.11296228 17.49875502 -1.11399001 14.64235637 -1.11352539 11.78588867 C-1.11712067 10.93640656 -1.12071594 10.08692444 -1.12442017 9.21170044 C-1.11854436 5.88528371 -1.0594098 3.1782294 0 0 Z " fill="#82C797" transform="translate(373,224)"/>
<path d="M0 0 C0.66 0.33 1.32 0.66 2 1 C5.0604194 1.15745826 8.101419 1.25866877 11.1640625 1.31640625 C12.52487442 1.3475779 12.52487442 1.3475779 13.91317749 1.37937927 C16.8170398 1.44487135 19.72099405 1.50375814 22.625 1.5625 C24.59115542 1.60568555 26.55730147 1.64929985 28.5234375 1.69335938 C33.34886362 1.80055239 38.1743824 1.90182081 43 2 C43.05399736 3.45792884 43.09279177 4.91642712 43.125 6.375 C43.14820313 7.18710938 43.17140625 7.99921875 43.1953125 8.8359375 C43 11 43 11 41 13 C40.01 13 39.02 13 38 13 C39.05875074 9.59687262 40.00902154 6.98646769 42 4 C40.82824219 4.10828125 40.82824219 4.10828125 39.6328125 4.21875 C30.81368796 4.9258513 22.03494454 5.11042231 13.1875 5.125 C12.02428223 5.12951172 10.86106445 5.13402344 9.66259766 5.13867188 C8.02556885 5.13577148 8.02556885 5.13577148 6.35546875 5.1328125 C5.37215576 5.13168457 4.38884277 5.13055664 3.37573242 5.12939453 C1 5 1 5 -1 4 C-0.67 2.68 -0.34 1.36 0 0 Z " fill="#8CCCA2" transform="translate(312,189)"/>
<path d="M0 0 C9.76150988 -0.02312446 19.5230133 -0.04091561 29.28454494 -0.05181217 C33.81674094 -0.05704078 38.34891827 -0.06413801 42.88110352 -0.07543945 C47.2512283 -0.08626914 51.62133508 -0.09227701 55.99147224 -0.09487724 C57.66250963 -0.09673135 59.33354597 -0.10035168 61.00457573 -0.10573006 C63.33697551 -0.11294159 65.66929993 -0.1139909 68.00170898 -0.11352539 C68.6994191 -0.11712067 69.39712921 -0.12071594 70.11598206 -0.12442017 C74.88594784 -0.11405216 74.88594784 -0.11405216 76 1 C76.08758003 2.99964982 76.10696576 5.0023611 76.09765625 7.00390625 C76.09282227 8.82631836 76.09282227 8.82631836 76.08789062 10.68554688 C76.07532227 12.60463867 76.07532227 12.60463867 76.0625 14.5625 C76.05798828 15.84576172 76.05347656 17.12902344 76.04882812 18.45117188 C76.03699545 21.63416022 76.02051068 24.81705762 76 28 C75.34 28 74.68 28 74 28 C74.00785522 26.92516357 74.00785522 26.92516357 74.01586914 25.82861328 C74.03660667 22.59408438 74.04964984 19.35956944 74.0625 16.125 C74.07506836 14.43310547 74.07506836 14.43310547 74.08789062 12.70703125 C74.09272461 11.09248047 74.09272461 11.09248047 74.09765625 9.4453125 C74.10551147 7.95281982 74.10551147 7.95281982 74.11352539 6.43017578 C74.1639415 3.99039227 74.1639415 3.99039227 73 2 C48.91 1.67 24.82 1.34 0 1 C0 0.67 0 0.34 0 0 Z " fill="#B5E9C4" transform="translate(330,164)"/>
<path d="M0 0 C13.53 0 27.06 0 41 0 C39.95206337 4.19174654 39.08236365 5.21592961 36 8 C36.33 6.35 36.66 4.7 37 3 C31.76725612 2.97532083 26.53454597 2.95714997 21.30175781 2.94506836 C19.52082733 2.94003289 17.739901 2.93320419 15.95898438 2.92456055 C13.40233335 2.91246058 10.84573688 2.90676391 8.2890625 2.90234375 C7.49005524 2.89718246 6.69104797 2.89202118 5.86782837 2.88670349 C1.80308095 2.7866125 1.80308095 2.7866125 -2 4 C-1.34 2.68 -0.68 1.36 0 0 Z " fill="#96D8A8" transform="translate(215,164)"/>
<path d="M0 0 C0.99 0.33 1.98 0.66 3 1 C1.71580959 2.67243402 0.42242815 4.33781447 -0.875 6 C-1.59429687 6.928125 -2.31359375 7.85625 -3.0546875 8.8125 C-3.69664062 9.534375 -4.33859375 10.25625 -5 11 C-5.66 11 -6.32 11 -7 11 C-7.433125 11.8971875 -7.433125 11.8971875 -7.875 12.8125 C-9 15 -9 15 -11 18 C-11.66 18 -12.32 18 -13 18 C-13.39832031 18.87398437 -13.39832031 18.87398437 -13.8046875 19.765625 C-15.03302996 22.06174228 -16.40314939 23.80356018 -18.125 25.75 C-18.93324219 26.67039063 -18.93324219 26.67039063 -19.7578125 27.609375 C-20.16773438 28.06828125 -20.57765625 28.5271875 -21 29 C-21.33 28.34 -21.66 27.68 -22 27 C-21.0625 24.875 -21.0625 24.875 -20 23 C-19.34 23 -18.68 23 -18 23 C-18 22.34 -18 21.68 -18 21 C-17.34 21 -16.68 21 -16 21 C-15.67 19.35 -15.34 17.7 -15 16 C-14.34 16 -13.68 16 -13 16 C-13 15.34 -13 14.68 -13 14 C-12.34 14 -11.68 14 -11 14 C-11 13.34 -11 12.68 -11 12 C-9.625 10.375 -9.625 10.375 -8 9 C-7.34 9 -6.68 9 -6 9 C-5.9071875 7.88625 -5.9071875 7.88625 -5.8125 6.75 C-4.74158364 3.12536 -3.1708131 1.9628843 0 0 Z " fill="#7DCE94" transform="translate(220,204)"/>
<path d="M0 0 C0.33 0 0.66 0 1 0 C1.33 10.23 1.66 20.46 2 31 C-2.63532252 29.84116937 -3.66130714 28.58017798 -6.75 25.0625 C-7.54921875 24.16660156 -8.3484375 23.27070313 -9.171875 22.34765625 C-11 20 -11 20 -11 18 C-9.125 18.25 -9.125 18.25 -7 19 C-6.30062468 20.31647119 -5.63270867 21.65022151 -5 23 C-4.01 23.33 -3.02 23.66 -2 24 C-1.34 16.08 -0.68 8.16 0 0 Z " fill="#5AC279" transform="translate(282,296)"/>
<path d="M0 0 C1 2 1 2 0.375 4.3125 C-1 7 -1 7 -3.54174805 9.17260742 C-6.6275645 12.72180201 -6.73165607 15.43053725 -6.70703125 19.92578125 C-6.72215256 20.67337204 -6.73727386 21.42096283 -6.75285339 22.19120789 C-6.79564081 24.56528087 -6.8045588 26.93808031 -6.8125 29.3125 C-6.83565158 30.92776802 -6.86101831 32.54300591 -6.88867188 34.15820312 C-6.95143457 38.10558086 -6.98383984 42.05216754 -7 46 C-7.33 46 -7.66 46 -8 46 C-8.37004586 42.12773435 -8.64701596 38.25601905 -8.86230469 34.37207031 C-8.95973996 32.69355766 -9.07114925 31.01582896 -9.19238281 29.33886719 C-10.40209079 11.45379999 -10.40209079 11.45379999 -6.9921875 6.3671875 C-4.78980484 3.94387617 -2.65571842 1.9074803 0 0 Z " fill="#64BC80" transform="translate(259,182)"/>
<path d="M0 0 C4.76978417 3.42446043 4.76978417 3.42446043 5.875 6.1875 C5.91625 6.785625 5.9575 7.38375 6 8 C5 9 5 9 1.30639648 9.11352539 C-0.33871292 9.11336624 -1.98382731 9.10766988 -3.62890625 9.09765625 C-4.92525246 9.09553383 -4.92525246 9.09553383 -6.24778748 9.09336853 C-9.01939292 9.08775239 -11.7909188 9.07519719 -14.5625 9.0625 C-16.4368478 9.05748708 -18.31119685 9.05292381 -20.18554688 9.04882812 C-24.79039544 9.03777772 -29.39518421 9.0205023 -34 9 C-34 8.67 -34 8.34 -34 8 C-33.08186523 7.97494385 -32.16373047 7.9498877 -31.21777344 7.92407227 C-27.80342975 7.8287973 -24.38924797 7.72957222 -20.97509766 7.62768555 C-19.4989061 7.58443965 -18.02266785 7.54275744 -16.54638672 7.50268555 C-14.42140652 7.44473154 -12.29665907 7.38111054 -10.171875 7.31640625 C-8.8940918 7.27974854 -7.61630859 7.24309082 -6.29980469 7.20532227 C-3.68090127 7.04236741 -1.48983284 6.77053197 1 6 C0.505 3.03 0.505 3.03 0 0 Z " fill="#8FD7A4" transform="translate(256,319)"/>
<path d="M0 0 C1.175625 0.5259375 1.175625 0.5259375 2.375 1.0625 C3.674375 1.5265625 3.674375 1.5265625 5 2 C5.66 1.67 6.32 1.34 7 1 C9.380973 3.380973 9.97142587 4.2387851 10.09765625 7.6015625 C10.08605469 8.59929687 10.07445312 9.59703125 10.0625 10.625 C10.05347656 11.62789063 10.04445313 12.63078125 10.03515625 13.6640625 C10.02355469 14.43492187 10.01195312 15.20578125 10 16 C5.12221922 11.84485341 2.00802934 6.02408801 0 0 Z " fill="#55C978" transform="translate(309,264)"/>
<path d="M0 0 C0.99 0.33 1.98 0.66 3 1 C1.25947943 3.92242205 -0.49405273 6.8368254 -2.25 9.75 C-2.98669922 10.9875 -2.98669922 10.9875 -3.73828125 12.25 C-6.16922584 16.26916173 -8.41046868 19.88907286 -12 23 C-12.33 22.34 -12.66 21.68 -13 21 C-12.34 21 -11.68 21 -11 21 C-10.7834375 19.88625 -10.7834375 19.88625 -10.5625 18.75 C-10.09812508 16.47972261 -9.58136431 14.24240521 -9 12 C-8.01 12 -7.02 12 -6 12 C-6 10.35 -6 8.7 -6 7 C-5.01 7 -4.02 7 -3 7 C-3 6.34 -3 5.68 -3 5 C-2.34 5 -1.68 5 -1 5 C-0.67 3.35 -0.34 1.7 0 0 Z " fill="#85D09E" transform="translate(370,223)"/>
<path d="M0 0 C6.6 0 13.2 0 20 0 C20 2.97 20 5.94 20 9 C19.34 9.66 18.68 10.32 18 11 C17.01 11 16.02 11 15 11 C16.05875074 7.59687262 17.00902154 4.98646769 19 2 C17.96359375 2.02320313 16.9271875 2.04640625 15.859375 2.0703125 C14.48959056 2.08907667 13.1197983 2.10727618 11.75 2.125 C11.06808594 2.14175781 10.38617188 2.15851563 9.68359375 2.17578125 C5.61462923 2.21528576 3.75100679 1.87550339 0 0 Z " fill="#76C68E" transform="translate(335,191)"/>
<path d="M0 0 C0.86625 0.2784375 0.86625 0.2784375 1.75 0.5625 C3.97214494 1.16952281 3.97214494 1.16952281 6 0.4375 C8.62473206 -0.13666014 9.75722562 0.63831556 12 2 C12 2.99 12 3.98 12 5 C11.34 5 10.68 5 10 5 C9.67 4.34 9.34 3.68 9 3 C8.34 3 7.68 3 7 3 C6.67 3.66 6.34 4.32 6 5 C5.34 5 4.68 5 4 5 C4 5.66 4 6.32 4 7 C3.34 7 2.68 7 2 7 C1.71125 7.639375 1.4225 8.27875 1.125 8.9375 C0 11 0 11 -2 12 C-1 3.42857143 -1 3.42857143 0 0 Z " fill="#6ACB88" transform="translate(162,266)"/>
<path d="M0 0 C1.4540625 0.7425 1.4540625 0.7425 2.9375 1.5 C2.9375 2.16 2.9375 2.82 2.9375 3.5 C3.5975 3.5 4.2575 3.5 4.9375 3.5 C5.5975 4.82 6.2575 6.14 6.9375 7.5 C4.4625 7.005 4.4625 7.005 1.9375 6.5 C1.6075 5.51 1.2775 4.52 0.9375 3.5 C-3.34277546 0.64966066 -8.11115204 0.93825874 -13.0625 1.5 C-15.96880368 2.9230984 -15.96880368 2.9230984 -18.0625 4.5 C-18.7225 4.17 -19.3825 3.84 -20.0625 3.5 C-14.52526509 -2.41911318 -7.43640135 -3.2108291 0 0 Z " fill="#91CFA1" transform="translate(234.0625,227.5)"/>
<path d="M0 0 C1.32 0.66 2.64 1.32 4 2 C2.35 4.31 0.7 6.62 -1 9 C-0.34 10.32 0.32 11.64 1 13 C1.66 13 2.32 13 3 13 C2.67 13.66 2.34 14.32 2 15 C0.68 14.67 -0.64 14.34 -2 14 C-2 13.34 -2 12.68 -2 12 C-2.66 12 -3.32 12 -4 12 C-4.33 10.35 -4.66 8.7 -5 7 C-3.68 6.67 -2.36 6.34 -1 6 C-0.67 4.02 -0.34 2.04 0 0 Z " fill="#77CD90" transform="translate(193,233)"/>
<path d="M0 0 C1.32 0.33 2.64 0.66 4 1 C3.18958252 1.6705542 2.37916504 2.3411084 1.54418945 3.03198242 C-1.64559397 6.75314134 -1.64911929 8.64298096 -1.70703125 13.48828125 C-1.72971321 14.5430793 -1.72971321 14.5430793 -1.75285339 15.6191864 C-1.79561495 17.85062003 -1.80455593 20.08069809 -1.8125 22.3125 C-1.83565371 23.83141595 -1.86102089 25.35029988 -1.88867188 26.86914062 C-1.95140606 30.57940133 -1.98383444 34.28921085 -2 38 C-2.33 38 -2.66 38 -3 38 C-3.07436755 33.3918813 -3.12870394 28.78411486 -3.16479492 24.17553711 C-3.17984622 22.60906893 -3.20029207 21.04264264 -3.22631836 19.47631836 C-3.26286433 17.21978394 -3.27976261 14.96380847 -3.29296875 12.70703125 C-3.30845261 12.01100296 -3.32393646 11.31497467 -3.33988953 10.59785461 C-3.3413957 6.20877812 -2.59993783 3.54155315 0 0 Z " fill="#65C683" transform="translate(152,283)"/>
<path d="M0 0 C2.86724686 0.57344937 3.8614515 0.8614515 6 3 C8.43176397 3.24501495 10.75864884 3.37324921 13.1953125 3.4140625 C14.25647781 3.44311172 14.25647781 3.44311172 15.33908081 3.4727478 C17.60093085 3.53257652 19.8628317 3.57894101 22.125 3.625 C23.6575744 3.66317686 25.19012728 3.70222842 26.72265625 3.7421875 C30.48159624 3.83828039 34.24063668 3.92229849 38 4 C38 4.33 38 4.66 38 5 C33.39320088 5.29204735 28.78663267 5.5430606 24.17553711 5.75683594 C22.60853295 5.83519424 21.04203957 5.92459804 19.47631836 6.02539062 C17.22033703 6.16867302 14.96547737 6.27165046 12.70703125 6.3671875 C12.01100296 6.42002899 11.31497467 6.47287048 10.59785461 6.52731323 C7.74181886 6.61586944 5.62939133 6.53940233 3.41049194 4.63775635 C2.01831055 2.97705078 2.01831055 2.97705078 0 0 Z " fill="#6EC089" transform="translate(216,322)"/>
<path d="M0 0 C3.22468896 3.12391743 6.29392978 6.36331966 9.3125 9.6875 C10.00988281 10.45449219 10.70726562 11.22148437 11.42578125 12.01171875 C13 14 13 14 13 16 C13.66 16 14.32 16 15 16 C15 16.66 15 17.32 15 18 C13.68 18 12.36 18 11 18 C9.4375 15.6875 9.4375 15.6875 8 13 C7.443125 12.443125 6.88625 11.88625 6.3125 11.3125 C5.879375 10.879375 5.44625 10.44625 5 10 C5 9.34 5 8.68 5 8 C4.34 8 3.68 8 3 8 C0 2.25 0 2.25 0 0 Z " fill="#85CF99" transform="translate(241,301)"/>
<path d="M0 0 C0.66 0.33 1.32 0.66 2 1 C0.92188894 2.89880796 -0.16273319 4.79391978 -1.25 6.6875 C-1.85328125 7.74324219 -2.4565625 8.79898437 -3.078125 9.88671875 C-4.8727487 12.79386323 -6.80728117 15.38523131 -9 18 C-9.33 17.01 -9.66 16.02 -10 15 C-9.34 15 -8.68 15 -8 15 C-7.67 12.69 -7.34 10.38 -7 8 C-6.34 8 -5.68 8 -5 8 C-4.67 7.01 -4.34 6.02 -4 5 C-3.34 5 -2.68 5 -2 5 C-1.34 3.35 -0.68 1.7 0 0 Z " fill="#7CCF94" transform="translate(339,273)"/>
<path d="M0 0 C0.33 0 0.66 0 1 0 C1.33 10.23 1.66 20.46 2 31 C-2 30 -2 30 -4 27 C-2.68 27 -1.36 27 0 27 C0 18.09 0 9.18 0 0 Z " fill="#7FC291" transform="translate(282,296)"/>
<path d="M0 0 C1.65 0 3.3 0 5 0 C7 2 7 2 7.125 4.625 C7.08375 5.40875 7.0425 6.1925 7 7 C5.5 5.6875 5.5 5.6875 4 4 C4 3.01 4 2.02 4 1 C3.01 1.495 3.01 1.495 2 2 C1.67 9.59 1.34 17.18 1 25 C0.67 25 0.34 25 0 25 C0 16.75 0 8.5 0 0 Z " fill="#65C57D" transform="translate(281,223)"/>
<path d="M0 0 C1.5 1.375 1.5 1.375 3 3 C3 3.66 3 4.32 3 5 C1.68 5.33 0.36 5.66 -1 6 C-1 6.99 -1 7.98 -1 9 C-1.99 9 -2.98 9 -4 9 C-4.33 9.99 -4.66 10.98 -5 12 C-5.66 11.67 -6.32 11.34 -7 11 C-6.34 9.35 -5.68 7.7 -5 6 C-4.34 6 -3.68 6 -3 6 C-2.690625 5.195625 -2.38125 4.39125 -2.0625 3.5625 C-1 1 -1 1 0 0 Z " fill="#66CA82" transform="translate(320,178)"/>
<path d="M0 0 C4.9549593 1.16587278 7.02717993 4.16143168 9.9609375 8.02734375 C10.30382812 8.67832031 10.64671875 9.32929688 11 10 C10.67 10.99 10.34 11.98 10 13 C8.33036458 11.02327092 6.66419927 9.0437967 5 7.0625 C4.52304688 6.49853516 4.04609375 5.93457031 3.5546875 5.35351562 C0 1.11328125 0 1.11328125 0 0 Z " fill="#81CC96" transform="translate(187,287)"/>
<path d="M0 0 C1 2 1 2 0.4375 4.375 C-1.41606387 7.75976881 -3.79227678 8.92834542 -7 11 C-8.38868516 13.10039331 -8.38868516 13.10039331 -9 15 C-9.45842179 11.46633206 -9.18346888 10.2493575 -7.03125 7.32421875 C-6.1959375 6.45410156 -5.360625 5.58398438 -4.5 4.6875 C-3.6646875 3.80449219 -2.829375 2.92148438 -1.96875 2.01171875 C-1.3190625 1.34785156 -0.669375 0.68398437 0 0 Z " fill="#88D49D" transform="translate(259,182)"/>
<path d="M0 0 C0.33 0.66 0.66 1.32 1 2 C0.67 2.66 0.34 3.32 0 4 C-0.07115097 5.97799703 -0.08409082 7.95834145 -0.0625 9.9375 C-0.05347656 10.99839844 -0.04445312 12.05929688 -0.03515625 13.15234375 C-0.02355469 14.09207031 -0.01195312 15.03179687 0 16 C0 16.99 0 17.98 0 19 C-2 18 -2 18 -3 15 C-3.50156459 9.30917105 -3.7258549 4.65731863 0 0 Z " fill="#91D0A4" transform="translate(213,232)"/>
<path d="M0 0 C3.2830098 1.6415049 4.27037919 4.82902851 6 8 C6.66 8 7.32 8 8 8 C8 8.99 8 9.98 8 11 C6.68 11 5.36 11 4 11 C4 10.01 4 9.02 4 8 C2.35 8.33 0.7 8.66 -1 9 C-0.67 6.03 -0.34 3.06 0 0 Z " fill="#82D09A" transform="translate(321,227)"/>
<path d="M0 0 C0.66 1.32 1.32 2.64 2 4 C1.125 6.25 1.125 6.25 0 8 C0 7.01 0 6.02 0 5 C-1.95894361 5.11306697 -1.95894361 5.11306697 -4 6 C-5.29660434 8.49034386 -5.29660434 8.49034386 -6 11 C-6.99 10.67 -7.98 10.34 -9 10 C-6.03 6.7 -3.06 3.4 0 0 Z " fill="#7ECF95" transform="translate(190,194)"/>
<path d="M0 0 C0.33 0.66 0.66 1.32 1 2 C-1.3463388 6.8731652 -3.48408258 9.86394624 -8 13 C-8.66 12.67 -9.32 12.34 -10 12 C-6.7 8.04 -3.4 4.08 0 0 Z " fill="#8ED1A3" transform="translate(165,223)"/>
<path d="M0 0 C3.63559661 3.43361902 6.36113346 6.7973607 9 11 C8.01 11.495 8.01 11.495 7 12 C6.566875 11.54625 6.13375 11.0925 5.6875 10.625 C3.89201658 8.79975666 3.89201658 8.79975666 1 7 C0.3125 3.375 0.3125 3.375 0 0 Z " fill="#7DCC95" transform="translate(216,271)"/>
<path d="M0 0 C0.66 1.32 1.32 2.64 2 4 C1.01 4.99 0.02 5.98 -1 7 C-1.66 6.67 -2.32 6.34 -3 6 C-3.33 6.66 -3.66 7.32 -4 8 C-4.99 6.35 -5.98 4.7 -7 3 C-5.68 3 -4.36 3 -3 3 C-3 2.34 -3 1.68 -3 1 C-2.01 0.67 -1.02 0.34 0 0 Z " fill="#6BCE86" transform="translate(205,297)"/>
<path d="M0 0 C2.64 0.33 5.28 0.66 8 1 C8 3.31 8 5.62 8 8 C8.66 8.33 9.32 8.66 10 9 C7 9 7 9 5.17578125 7.28515625 C4.56089844 6.55167969 3.94601563 5.81820313 3.3125 5.0625 C2.68988281 4.33160156 2.06726563 3.60070312 1.42578125 2.84765625 C0 1 0 1 0 0 Z " fill="#7ED095" transform="translate(174,272)"/>
<path d="M0 0 C0.66 0 1.32 0 2 0 C1.35256333 3.82990706 -0.45311237 6.5283898 -2.5625 9.75 C-3.20316406 10.73484375 -3.84382813 11.7196875 -4.50390625 12.734375 C-4.99761719 13.48203125 -5.49132812 14.2296875 -6 15 C-7 12 -7 12 -6.22265625 10.17578125 C-5.1484375 8.45052083 -4.07421875 6.72526042 -3 5 C-2.34 5 -1.68 5 -1 5 C-0.67 3.35 -0.34 1.7 0 0 Z " fill="#84CF9E" transform="translate(353,250)"/>
<path d="M0 0 C0.66 0 1.32 0 2 0 C3.23408207 2.46816414 3.20197579 4.24661201 3.25 7 C3.27578125 7.886875 3.3015625 8.77375 3.328125 9.6875 C3.21984375 10.450625 3.1115625 11.21375 3 12 C2.01 12.66 1.02 13.32 0 14 C0 9.38 0 4.76 0 0 Z " fill="#72C58C" transform="translate(239,235)"/>
<path d="M0 0 C0.33 0.66 0.66 1.32 1 2 C-0.79370744 6.09990271 -2.83766205 9.38008643 -6.8125 11.5 C-7.534375 11.665 -8.25625 11.83 -9 12 C-6.2520787 7.72545575 -3.30749011 3.85873847 0 0 Z " fill="#85CF9C" transform="translate(273,166)"/>
<path d="M0 0 C0.99 0.33 1.98 0.66 3 1 C1.71580959 2.67243402 0.42242815 4.33781447 -0.875 6 C-1.59429687 6.928125 -2.31359375 7.85625 -3.0546875 8.8125 C-3.69664062 9.534375 -4.33859375 10.25625 -5 11 C-5.66 11 -6.32 11 -7 11 C-7.33 10.01 -7.66 9.02 -8 8 C-7.01 8 -6.02 8 -5 8 C-5 7.34 -5 6.68 -5 6 C-4.34 6 -3.68 6 -3 6 C-2.690625 5.195625 -2.38125 4.39125 -2.0625 3.5625 C-1 1 -1 1 0 0 Z " fill="#8BCFA3" transform="translate(244,176)"/>
<path d="M0 0 C3.125 0.375 3.125 0.375 6 1 C6.33 2.32 6.66 3.64 7 5 C6.34 5 5.68 5 5 5 C4.67 4.34 4.34 3.68 4 3 C3.34 3 2.68 3 2 3 C1.67 3.66 1.34 4.32 1 5 C0.34 5 -0.32 5 -1 5 C-1.33 5.66 -1.66 6.32 -2 7 C-2.125 4.625 -2.125 4.625 -2 2 C-1.34 1.34 -0.68 0.68 0 0 Z " fill="#86D29E" transform="translate(167,266)"/>
<path d="M0 0 C0.99 0 1.98 0 3 0 C3.1953125 6.0546875 3.1953125 6.0546875 3 8 C2.34 8.66 1.68 9.32 1 10 C0.01 10 -0.98 10 -2 10 C-0.94124926 6.59687262 0.00902154 3.98646769 2 1 C1.34 0.67 0.68 0.34 0 0 Z " fill="#80CF99" transform="translate(352,192)"/>
<path d="M0 0 C3.3 0 6.6 0 10 0 C10.66 1.98 11.32 3.96 12 6 C11.01 5.67 10.02 5.34 9 5 C8.67 4.34 8.34 3.68 8 3 C5.87423218 2.53348793 5.87423218 2.53348793 3.4375 2.375 C2.61121094 2.30023438 1.78492188 2.22546875 0.93359375 2.1484375 C0.29550781 2.09945312 -0.34257812 2.05046875 -1 2 C-0.67 1.34 -0.34 0.68 0 0 Z " fill="#8FD4A3" transform="translate(275,164)"/>
<path d="M0 0 C4.46962834 1.64670518 6.31744887 2.9761733 9 7 C8.67 7.99 8.34 8.98 8 10 C6.66370254 8.52351062 5.33103329 7.0437367 4 5.5625 C3.2575 4.73878906 2.515 3.91507812 1.75 3.06640625 C0 1 0 1 0 0 Z " fill="#7DCF96" transform="translate(261,303)"/>
<path d="M0 0 C2.4375 0.375 2.4375 0.375 5 1 C6.4783226 3.95664519 6.06032783 6.74229737 6 10 C3.25722422 6.80009492 1.3697164 3.99500618 0 0 Z " fill="#84CD9B" transform="translate(319,281)"/>
<path d="M0 0 C0.66 1.32 1.32 2.64 2 4 C0.1875 6.5 0.1875 6.5 -2 9 C-2.99 9 -3.98 9 -5 9 C-3.7508258 5.54074837 -2.32472205 2.85306797 0 0 Z " fill="#80CE96" transform="translate(326,169)"/>
<path d="M0 0 C3.24299151 2.38957269 5.50902342 4.2047869 7 8 C2.25 7.25 2.25 7.25 0 5 C-0.125 2.375 -0.125 2.375 0 0 Z " fill="#7ACF93" transform="translate(196,248)"/>
<path d="M0 0 C2.16874252 0.50603992 3.99967627 0.99983813 6 2 C6 2.66 6 3.32 6 4 C6.66 4 7.32 4 8 4 C8.66 5.32 9.32 6.64 10 8 C8.35 7.67 6.7 7.34 5 7 C4.67 6.01 4.34 5.02 4 4 C1.99983534 2.79117904 1.99983534 2.79117904 0 2 C0 1.34 0 0.68 0 0 Z " fill="#85CD9E" transform="translate(231,227)"/>
<path d="M0 0 C1.32 0 2.64 0 4 0 C3.375 1.9375 3.375 1.9375 2 4 C-1.125 4.75 -1.125 4.75 -4 5 C-4.66 4.01 -5.32 3.02 -6 2 C-4.02 2 -2.04 2 0 2 C0 1.34 0 0.68 0 0 Z " fill="#67C984" transform="translate(246,172)"/>
<path d="M0 0 C0.75 1.6875 0.75 1.6875 1 4 C-0.75 6.75 -0.75 6.75 -3 9 C-3.99 9 -4.98 9 -6 9 C-4.47291037 5.56404834 -2.40072955 2.88087546 0 0 Z " fill="#80CD95" transform="translate(180,205)"/>
<path d="M0 0 C0.33 1.32 0.66 2.64 1 4 C0.34 4 -0.32 4 -1 4 C-1.2475 4.639375 -1.495 5.27875 -1.75 5.9375 C-3 8 -3 8 -5.078125 8.62890625 C-6.02945313 8.81259766 -6.02945313 8.81259766 -7 9 C-6.02180976 7.68677212 -5.0424189 6.37443848 -4.0625 5.0625 C-3.51722656 4.33160156 -2.97195312 3.60070312 -2.41015625 2.84765625 C-1 1 -1 1 0 0 Z " fill="#8ACF9B" transform="translate(211,169)"/>
<path d="M0 0 C2.39489543 0.74324341 3.70777616 1.47057354 4.93359375 3.69140625 C5.67219923 5.44073501 6.34049685 7.21934149 7 9 C6.01 9.495 6.01 9.495 5 10 C4.16121545 8.71186658 3.32913217 7.41936744 2.5 6.125 C2.0359375 5.40570313 1.571875 4.68640625 1.09375 3.9453125 C0 2 0 2 0 0 Z " fill="#84CD98" transform="translate(293,238)"/>
<path d="M0 0 C2.63978826 3.18595135 5.10498388 6.30970546 7 10 C6.67 10.66 6.34 11.32 6 12 C2.59156258 9.11593757 1.13408616 7.6291735 0.1875 3.1875 C0.125625 2.135625 0.06375 1.08375 0 0 Z " fill="#7FCB96" transform="translate(314,215)"/>
<path d="M0 0 C0.66 0.33 1.32 0.66 2 1 C1.01 2.485 1.01 2.485 0 4 C-0.165 4.70125 -0.33 5.4025 -0.5 6.125 C-0.665 6.74375 -0.83 7.3625 -1 8 C-1.99 8.495 -1.99 8.495 -3 9 C-3.66 8.34 -4.32 7.68 -5 7 C-4.34 7 -3.68 7 -3 7 C-3.061875 6.21625 -3.12375 5.4325 -3.1875 4.625 C-3.125625 3.75875 -3.06375 2.8925 -3 2 C-2.01 1.34 -1.02 0.68 0 0 Z " fill="#5CC37C" transform="translate(215,166)"/>
<path d="M0 0 C1.8125 0.1875 1.8125 0.1875 4 1 C5.8125 3.4375 5.8125 3.4375 7 6 C6.67 6.66 6.34 7.32 6 8 C4.99403703 7.0479279 3.99538437 6.08812654 3 5.125 C2.443125 4.59132813 1.88625 4.05765625 1.3125 3.5078125 C0 2 0 2 0 0 Z " fill="#80CA95" transform="translate(271,314)"/>
<path d="M0 0 C4.875 0.875 4.875 0.875 6 2 C6.04063832 3.66617115 6.042721 5.33388095 6 7 C1.125 3.375 1.125 3.375 0 0 Z " fill="#7DCB94" transform="translate(209,313)"/>
<path d="M0 0 C0.33 0.66 0.66 1.32 1 2 C0.328125 3.91015625 0.328125 3.91015625 -0.75 6.0625 C-1.09546875 6.77535156 -1.4409375 7.48820313 -1.796875 8.22265625 C-3 10 -3 10 -6 11 C-4.54955729 6.89041233 -2.48889248 3.56741255 0 0 Z " fill="#97D6AC" transform="translate(344,210)"/>
<path d="M0 0 C2.40575607 2.18517099 3.79535581 4.25919671 5.1875 7.1875 C5.53167969 7.90292969 5.87585938 8.61835938 6.23046875 9.35546875 C6.48441406 9.89816406 6.73835938 10.44085938 7 11 C6.01 11 5.02 11 4 11 C1.31900734 7.49408652 0.50483662 4.34159496 0 0 Z " fill="#80CD96" transform="translate(287,170)"/>
<path d="M0 0 C3.28788824 3.11016455 5.83735988 6.01618925 8 10 C7.01 10 6.02 10 5 10 C5 9.34 5 8.68 5 8 C4.34 8 3.68 8 3 8 C2.67 7.01 2.34 6.02 2 5 C1.34 4.67 0.68 4.34 0 4 C0 2.68 0 1.36 0 0 Z " fill="#7DCC95" transform="translate(227,284)"/>
<path d="M0 0 C1 3 1 3 -0.1875 5.625 C-2 8 -2 8 -4.1875 8.8125 C-4.785625 8.874375 -5.38375 8.93625 -6 9 C-4.47291037 5.56404834 -2.40072955 2.88087546 0 0 Z " fill="#8FCFA3" transform="translate(197,185)"/>
<path d="M0 0 C0.99 0.33 1.98 0.66 3 1 C1.35 3.64 -0.3 6.28 -2 9 C-2.33 7.68 -2.66 6.36 -3 5 C-2.34 5 -1.68 5 -1 5 C-0.67 3.35 -0.34 1.7 0 0 Z " fill="#93D5A4" transform="translate(370,223)"/>
<path d="M0 0 C0.66 0.99 1.32 1.98 2 3 C0.77065985 6.68802044 -0.93859378 7.72356973 -4 10 C-3.5205537 5.78087253 -2.83374881 3.20336822 0 0 Z " fill="#72CA89" transform="translate(169,218)"/>
<path d="M0 0 C0.66 0 1.32 0 2 0 C0.44499019 3.81684226 -2.03595495 6.19195732 -5 9 C-5 7.68 -5 6.36 -5 5 C-4.34 5 -3.68 5 -3 5 C-2.67 4.01 -2.34 3.02 -2 2 C-1.34 2 -0.68 2 0 2 C0 1.34 0 0.68 0 0 Z " fill="#8CCFA0" transform="translate(228,195)"/>
<path d="M0 0 C2.72426311 2.35277269 3.8141763 4.62496331 5 8 C3.68 7.67 2.36 7.34 1 7 C0.67 4.69 0.34 2.38 0 0 Z " fill="#8BCFA1" transform="translate(299,190)"/>
<path d="M0 0 C2.76262553 0.3810518 3.84143894 0.83597132 5.8125 2.875 C6.204375 3.57625 6.59625 4.2775 7 5 C6.67 5.99 6.34 6.98 6 8 C5.67 7.01 5.34 6.02 5 5 C4.34 5 3.68 5 3 5 C1.375 2.5 1.375 2.5 0 0 Z " fill="#84CE9A" transform="translate(202,305)"/>
<path d="M0 0 C0.66 0.33 1.32 0.66 2 1 C-0.475 5.455 -0.475 5.455 -3 10 C-3.33 10 -3.66 10 -4 10 C-4 8.35 -4 6.7 -4 5 C-3.34 5 -2.68 5 -2 5 C-1.34 3.35 -0.68 1.7 0 0 Z " fill="#93D4A8" transform="translate(339,273)"/>
<path d="M0 0 C0.66 0 1.32 0 2 0 C1.65120368 3.25543229 0.97866739 4.01873107 -1.5625 6.25 C-2.366875 6.8275 -3.17125 7.405 -4 8 C-3.34 6.02 -2.68 4.04 -2 2 C-1.34 2 -0.68 2 0 2 C0 1.34 0 0.68 0 0 Z " fill="#8AD29E" transform="translate(202,225)"/>
<path d="M0 0 C4 4.625 4 4.625 4 8 C2.35 7.01 0.7 6.02 -1 5 C-0.67 3.35 -0.34 1.7 0 0 Z " fill="#7BCA94" transform="translate(309,207)"/>
<path d="M0 0 C1.32 0.33 2.64 0.66 4 1 C4.33 3.31 4.66 5.62 5 8 C2.27573689 5.64722731 1.1858237 3.37503669 0 0 Z " fill="#82CF9D" transform="translate(309,264)"/>
<path d="M0 0 C0.99 0.33 1.98 0.66 3 1 C1.35 2.98 -0.3 4.96 -2 7 C-2.6875 5.1875 -2.6875 5.1875 -3 3 C-1.5625 1.25 -1.5625 1.25 0 0 Z " fill="#90D0A2" transform="translate(220,204)"/>
<path d="M0 0 C4.42857143 5.14285714 4.42857143 5.14285714 5 9 C3.0625 8.4375 3.0625 8.4375 1 7 C0.25 3.375 0.25 3.375 0 0 Z " fill="#81D19D" transform="translate(304,198)"/>
<path d="M0 0 C1.32 1.32 2.64 2.64 4 4 C3.67 4.99 3.34 5.98 3 7 C1.35 7 -0.3 7 -2 7 C-1.01 6.67 -0.02 6.34 1 6 C0.67 4.02 0.34 2.04 0 0 Z " fill="#9DD9AB" transform="translate(258,321)"/>
<path d="M0 0 C4.875 4.75 4.875 4.75 6 7 C4.35 7 2.7 7 1 7 C0.67 4.69 0.34 2.38 0 0 Z " fill="#77C98D" transform="translate(235,294)"/>
<path d="M0 0 C-1.44253657 3.36591866 -3.33264727 5.51047079 -6 8 C-5.62403791 5.21788056 -5.32681541 3.4120716 -3.5625 1.1875 C-2 0 -2 0 0 0 Z " fill="#8FD29D" transform="translate(237,187)"/>
<path d="M0 0 C3 1 3 1 5 4 C4.625 6.1875 4.625 6.1875 4 8 C0 1.125 0 1.125 0 0 Z " fill="#84CE9A" transform="translate(314,272)"/>
<path d="M0 0 C0.99 0 1.98 0 3 0 C1.8141763 3.37503669 0.72426311 5.64722731 -2 8 C-1.125 2.25 -1.125 2.25 0 0 Z " fill="#89D3A4" transform="translate(343,265)"/>
<path d="M0 0 C0.66 0.33 1.32 0.66 2 1 C2 3 2 3 -0.375 5.625 C-3 8 -3 8 -5 8 C-5 7.34 -5 6.68 -5 6 C-4.34 6 -3.68 6 -3 6 C-2.690625 5.195625 -2.38125 4.39125 -2.0625 3.5625 C-1 1 -1 1 0 0 Z " fill="#80CB95" transform="translate(320,178)"/>
<path d="M0 0 C0.33 1.32 0.66 2.64 1 4 C0.01 4.33 -0.98 4.66 -2 5 C-2.33 5.99 -2.66 6.98 -3 8 C-3.33 7.34 -3.66 6.68 -4 6 C-1.68421053 1.68421053 -1.68421053 1.68421053 0 0 Z " fill="#6FC486" transform="translate(263,178)"/>
</svg>
