<?xml version="1.0" encoding="UTF-8"?>
<svg version="1.1" xmlns="http://www.w3.org/2000/svg" width="2816" height="1536">
<path d="M0 0 C25.11212054 -0.44272103 25.11212054 -0.44272103 31 2 C33.28240836 4.47260906 34.43651932 6.81675709 35.4375 10 C36.6719953 13.53932428 38.23958627 15.42995963 41 18 C41 18.99 41 19.98 41 21 C41.66 21 42.32 21 43 21 C46 27.625 46 27.625 46 31 C46.66 31 47.32 31 48 31 C48 31.66 48 32.32 48 33 C48.66 33 49.32 33 50 33 C53 38.625 53 38.625 53 42 C53.66 42 54.32 42 55 42 C55.6509259 43.24735567 56.29551669 44.49801832 56.9375 45.75 C57.29714844 46.44609375 57.65679688 47.1421875 58.02734375 47.859375 C59 50 59 50 59.50390625 52.203125 C59.66761719 52.79609375 59.83132813 53.3890625 60 54 C60.66 54.33 61.32 54.66 62 55 C62.625 57.5625 62.625 57.5625 63 60 C63.66 60 64.32 60 65 60 C65.84114171 61.43294498 66.67265687 62.87154405 67.5 64.3125 C67.9640625 65.11300781 68.428125 65.91351562 68.90625 66.73828125 C70 69 70 69 70 72 C70.66 72 71.32 72 72 72 C72.36351562 72.88751953 72.36351562 72.88751953 72.734375 73.79296875 C74.7092876 78.449205 76.76688013 82.07406873 80 86 C80 86.99 80 87.98 80 89 C80.66 89 81.32 89 82 89 C82.84114171 90.43294498 83.67265687 91.87154405 84.5 93.3125 C84.9640625 94.11300781 85.428125 94.91351562 85.90625 95.73828125 C87 98 87 98 87 101 C87.66 101 88.32 101 89 101 C89.5775 102.175625 90.155 103.35125 90.75 104.5625 C92.15053768 107.38358304 93.63321774 110.11016393 95.25 112.8125 C97 116 97 116 97 119 C97.66 119 98.32 119 99 119 C99.24234375 119.66386719 99.4846875 120.32773437 99.734375 121.01171875 C101.63867996 126.02882989 103.49926009 129.87412797 107 134 C107 134.99 107 135.98 107 137 C107.66 137 108.32 137 109 137 C109 137.99 109 138.98 109 140 C109.66 140 110.32 140 111 140 C111.45375 141.134375 111.9075 142.26875 112.375 143.4375 C113.57095806 147.04721692 113.57095806 147.04721692 116 148 C119 153.30769231 119 153.30769231 119 157 C119.66 157 120.32 157 121 157 C121.35191406 157.65484375 121.70382812 158.3096875 122.06640625 158.984375 C124.80007453 164.03773568 127.58884323 169.04649494 130.5 174 C132.83130078 177.97875332 135.13452485 181.96928872 137.375 186 C137.85710937 186.86625 138.33921875 187.7325 138.8359375 188.625 C139.88846869 190.77244619 140.53501104 192.66424151 141 195 C141.66 195 142.32 195 143 195 C146 200.625 146 200.625 146 204 C146.66 204 147.32 204 148 204 C148.84114171 205.43294498 149.67265687 206.87154405 150.5 208.3125 C150.9640625 209.11300781 151.428125 209.91351562 151.90625 210.73828125 C153 213 153 213 153 216 C153.66 216 154.32 216 155 216 C155.24234375 216.50789062 155.4846875 217.01578125 155.734375 217.5390625 C157.39560188 220.95096694 159.05984911 224.20717891 161.25 227.3125 C163 230 163 230 163 233 C163.66 233 164.32 233 165 233 C165.6509259 234.24735567 166.29551669 235.49801832 166.9375 236.75 C167.29714844 237.44609375 167.65679688 238.1421875 168.02734375 238.859375 C168.95558182 240.90224433 169.53166578 242.81115376 170 245 C170.66 245 171.32 245 172 245 C172.33 246.98 172.66 248.96 173 251 C173.66 251 174.32 251 175 251 C175.61488281 252.13888672 175.61488281 252.13888672 176.2421875 253.30078125 C176.78101563 254.29464844 177.31984375 255.28851562 177.875 256.3125 C178.40867187 257.29863281 178.94234375 258.28476562 179.4921875 259.30078125 C181.00722126 262.09586458 181.00722126 262.09586458 183 265 C183 265.99 183 266.98 183 268 C183.66 268 184.32 268 185 268 C186.65 271.63 188.3 275.26 190 279 C191.65 276.03 193.3 273.06 195 270 C195.66 270 196.32 270 197 270 C197.103125 269.2575 197.20625 268.515 197.3125 267.75 C198.05269611 264.78921557 199.15719597 263.38028854 201 261 C201.70514846 258.85266073 201.70514846 258.85266073 202 257 C202.66 257 203.32 257 204 257 C204.12375 256.2575 204.2475 255.515 204.375 254.75 C204.95486701 252.19858515 205.73708739 250.2732427 207 248 C207.66 248 208.32 248 209 248 C209.12375 247.443125 209.2475 246.88625 209.375 246.3125 C210.05976855 243.77885636 210.99133763 241.42078968 212 239 C212.66 239 213.32 239 214 239 C214 238.01 214 237.02 214 236 C214.66 236 215.32 236 216 236 C216.33 234.35 216.66 232.7 217 231 C217.66 231 218.32 231 219 231 C219 230.34 219 229.68 219 229 C219.66 229 220.32 229 221 229 C221.12375 228.0925 221.2475 227.185 221.375 226.25 C221.92109677 223.41029677 222.57263803 221.47409409 224 219 C224.66 219 225.32 219 226 219 C226.12632812 218.41992188 226.25265625 217.83984375 226.3828125 217.2421875 C226.99770836 215.00832533 227.81119298 213.17839495 228.875 211.125 C229.22820312 210.43664062 229.58140625 209.74828125 229.9453125 209.0390625 C230.29335937 208.36617187 230.64140625 207.69328125 231 207 C231.5775 205.845 232.155 204.69 232.75 203.5 C233.1625 202.675 233.575 201.85 234 201 C234.66 201 235.32 201 236 201 C236.0825 200.48566406 236.165 199.97132813 236.25 199.44140625 C237.31227074 195.98349368 239.16378948 193.02888239 241 189.9375 C243.86013785 185.14445106 243.86013785 185.14445106 246 180 C246.66 180 247.32 180 248 180 C248.12246094 179.42765625 248.24492188 178.8553125 248.37109375 178.265625 C249.02762868 175.90046809 249.93723512 173.92793203 251.0625 171.75 C251.42472656 171.04359375 251.78695313 170.3371875 252.16015625 169.609375 C252.43730469 169.07828125 252.71445313 168.5471875 253 168 C253.66 168 254.32 168 255 168 C255.0825 167.29875 255.165 166.5975 255.25 165.875 C256.17702638 162.32139888 257.91207023 160.00907526 260 157 C260.7734375 155.4221875 260.7734375 155.4221875 261.5625 153.8125 C263 151 263 151 264.46484375 149.59375 C266.25018675 147.74026414 267.01719135 146.05852587 268 143.6875 C269.54383606 140.05354744 271.19733669 136.51519345 273 133 C273.66 133 274.32 133 275 133 C275.12246094 132.42765625 275.24492188 131.8553125 275.37109375 131.265625 C276.02762868 128.90046809 276.93723512 126.92793203 278.0625 124.75 C278.42472656 124.04359375 278.78695313 123.3371875 279.16015625 122.609375 C279.43730469 122.07828125 279.71445313 121.5471875 280 121 C280.66 121 281.32 121 282 121 C282.33 119.35 282.66 117.7 283 116 C283.66 116 284.32 116 285 116 C285.12375 115.4225 285.2475 114.845 285.375 114.25 C286 112 286 112 288 108 C209.79 107.505 209.79 107.505 130 107 C129 104 129 104 130.36328125 101.08203125 C131.00652344 100.00308594 131.64976562 98.92414063 132.3125 97.8125 C132.94800781 96.72582031 133.58351563 95.63914062 134.23828125 94.51953125 C134.81964844 93.68808594 135.40101563 92.85664062 136 92 C136.66 92 137.32 92 138 92 C138.185625 91.13375 138.185625 91.13375 138.375 90.25 C139.00648824 87.97664233 139.88858191 86.0746471 141 84 C141.66 84 142.32 84 143 84 C143.309375 83.21625 143.61875 82.4325 143.9375 81.625 C145 79 145 79 146 77 C146.66 77 147.32 77 148 77 C148.0825 76.484375 148.165 75.96875 148.25 75.4375 C149.32140225 71.95544268 151.13523605 69.12799115 153 66 C153.66 66 154.32 66 155 66 C155.268125 65.28457031 155.53625 64.56914063 155.8125 63.83203125 C157.01731307 60.95871061 158.41237112 58.36662374 160 55.6875 C160.515625 54.80449219 161.03125 53.92148437 161.5625 53.01171875 C162.2740625 52.01591797 162.2740625 52.01591797 163 51 C163.66 51 164.32 51 165 51 C165 50.01 165 49.02 165 48 C165.66 48 166.32 48 167 48 C167.4640625 46.824375 167.4640625 46.824375 167.9375 45.625 C169 43 169 43 170 41 C170.66 41 171.32 41 172 41 C172.12375 40.4225 172.2475 39.845 172.375 39.25 C173.00648824 36.97664233 173.88858191 35.0746471 175 33 C175.66 33 176.32 33 177 33 C177.4640625 31.824375 177.4640625 31.824375 177.9375 30.625 C179 28 179 28 180 26 C180.66 26 181.32 26 182 26 C182.12375 25.401875 182.2475 24.80375 182.375 24.1875 C183 22 183 22 185 19 C185.66 19 186.32 19 187 19 C187.12375 18.236875 187.2475 17.47375 187.375 16.6875 C188 14 188 14 190 11 C190.66 11 191.32 11 192 11 C192.0825 10.443125 192.165 9.88625 192.25 9.3125 C193.34144993 5.94719603 194.3410978 4.41493081 197 2 C200.62627565 1.2338656 204.22038367 1.3435147 207.91435242 1.39199829 C209.60288597 1.38453176 209.60288597 1.38453176 211.3255313 1.37691438 C215.11153114 1.36630573 218.89645281 1.39153562 222.68237305 1.41650391 C225.39067571 1.41905298 228.09895238 1.41407769 230.80725098 1.40942383 C237.40724528 1.40260141 244.00690969 1.42228088 250.6068364 1.45058711 C258.28683685 1.48239876 265.96677871 1.48683568 273.64683554 1.48977904 C287.34446358 1.49584573 301.0419437 1.52497872 314.73950195 1.56787109 C328.04354136 1.60949532 341.34751135 1.6378099 354.65161133 1.64990234 C355.47141881 1.65065056 356.2912263 1.65139877 357.13587644 1.65216966 C360.43072411 1.6551437 363.72557182 1.658081 367.02041958 1.66095594 C381.2116992 1.67367753 395.40296321 1.69744496 409.59422544 1.7225942 C411.89609398 1.72657873 414.19796282 1.73029653 416.49983191 1.73394823 C424.55365492 1.74695427 432.60745038 1.76324639 440.661244 1.78893264 C443.99296416 1.79954481 447.32465399 1.80812743 450.65638924 1.81350327 C454.25982528 1.8196807 457.863186 1.83201338 461.46659851 1.84609985 C463.0631527 1.84684649 463.0631527 1.84684649 464.69196051 1.84760821 C465.64941855 1.85268275 466.60687659 1.85775729 467.5933485 1.86298561 C468.42618522 1.86531625 469.25902193 1.8676469 470.11709613 1.87004817 C472 2 472 2 473 3 C473.09714742 4.34621612 473.12522935 5.69749294 473.12534916 7.04720974 C473.12910444 8.36607333 473.12910444 8.36607333 473.13293558 9.71158063 C473.13059442 10.69052718 473.12825325 11.66947373 473.12584114 12.67808533 C473.12729458 13.71222427 473.12874802 14.74636321 473.13024551 15.8118397 C473.13393386 19.32371146 473.13040605 22.83554057 473.12698364 26.34741211 C473.12813434 28.87194052 473.12972152 31.39646877 473.13171089 33.92099667 C473.13503139 39.4338353 473.13520524 44.94666055 473.13266373 50.45949936 C473.12889473 58.65702877 473.13080794 66.85454988 473.13387203 75.05207923 C473.13914918 89.6894336 473.13867686 104.32678363 473.13579312 118.96413842 C473.13328184 131.77320172 473.13261886 144.58226341 473.13381577 157.3913269 C473.13393034 158.66367245 473.13393034 158.66367245 473.13404724 159.96172195 C473.13435855 163.40459115 473.13467695 166.84746035 473.135007 170.29032954 C473.13806897 202.61559324 473.13528783 234.94085417 473.1299101 267.26611744 C473.12516417 296.01237405 473.12558878 324.75862624 473.13037109 353.50488281 C473.13572071 385.76939366 473.13785186 418.03390205 473.13475883 450.29841328 C473.13443809 453.73516655 473.13412525 457.17191982 473.13381577 460.6086731 C473.13373669 461.45494727 473.13365761 462.30122144 473.13357614 463.17314028 C473.13243659 475.977071 473.13377279 488.78099995 473.13629532 501.58493042 C473.13914793 516.13726352 473.13845399 530.68959158 473.13301457 545.24192405 C473.13006774 553.39567346 473.12990174 561.54941196 473.13366075 569.7031611 C473.1361521 575.77457739 473.13347054 581.84597934 473.12868617 587.91739476 C473.12756078 590.38641058 473.12815584 592.85542784 473.13056196 595.32444274 C473.1335627 598.65695494 473.13052485 601.98940579 473.12584114 605.32191467 C473.12818231 606.30086122 473.13052347 607.27980777 473.13293558 608.28841937 C473.13043207 609.16766176 473.12792855 610.04690416 473.12534916 610.95279026 C473.12524753 612.09774238 473.12524753 612.09774238 473.12514383 613.26582485 C473 615 473 615 472 616 C470.48646296 616.10011501 468.96827294 616.13075449 467.45143127 616.13371277 C466.46849091 616.13797775 465.48555054 616.14224274 464.4728241 616.14663696 C463.38552505 616.14618378 462.29822601 616.14573059 461.17797852 616.14526367 C460.03987732 616.14862228 458.90177612 616.1519809 457.72918701 616.15544128 C453.94574916 616.16498437 450.1623554 616.16689606 446.37890625 616.16796875 C443.76195761 616.17117892 441.14500916 616.1745428 438.52806091 616.17805481 C433.03424795 616.18445743 427.54044705 616.18593651 422.04663086 616.18530273 C415.6897097 616.18470178 409.33287336 616.19525538 402.97597367 616.2110464 C396.86934463 616.22567732 390.76275642 616.22929137 384.65611076 616.22869301 C382.05367626 616.22987728 379.4512412 616.23432383 376.84881783 616.24202538 C373.21627796 616.25176873 369.58395907 616.24896967 365.95141602 616.24291992 C364.8661412 616.24853943 363.78086639 616.25415894 362.66270447 616.25994873 C361.67694427 616.25575424 360.69118408 616.25155975 359.67555237 616.24723816 C358.81589654 616.24778293 357.95624071 616.24832769 357.07053471 616.24888897 C355 616 355 616 353 614 C352.74519098 611.21885145 352.74519098 611.21885145 352.73828697 607.58504295 C352.73229288 606.58122001 352.73229288 606.58122001 352.72617769 605.55711782 C352.71512307 603.29259324 352.71841588 601.02830976 352.7215271 598.76376343 C352.71652878 597.13273834 352.71065436 595.50171573 352.70397437 593.87069666 C352.68810415 589.37158115 352.68473985 584.87252795 352.68332577 580.37338781 C352.67964391 575.52809701 352.6644946 570.68284088 352.65071106 565.83757019 C352.62839608 557.43710058 352.61340833 549.03664323 352.60334396 540.63615036 C352.58878192 528.49032928 352.56325214 516.34455093 352.53501268 504.19875486 C352.48949957 484.49481922 352.45290349 464.79087744 352.421875 445.08691406 C352.39170793 425.94204632 352.35736617 406.79719361 352.31738281 387.65234375 C352.31369049 385.88333704 352.31369049 385.88333704 352.30992357 384.07859282 C352.29754933 378.1624258 352.28509273 372.24625895 352.27259517 366.33009219 C352.16895974 317.22008243 352.07977885 268.11005391 352 219 C351.03810003 220.72718516 350.08063492 222.45684058 349.125 224.1875 C348.59132813 225.15042969 348.05765625 226.11335937 347.5078125 227.10546875 C346.1576322 229.69739518 345.02901671 232.26761098 344 235 C343.34 235 342.68 235 342 235 C341.67 236.65 341.34 238.3 341 240 C340.34 240 339.68 240 339 240 C338.896875 240.55558594 338.79375 241.11117187 338.6875 241.68359375 C337.85806825 244.47821321 336.54801581 246.5953498 335 249.0625 C333.31203653 251.76080698 332.00950639 253.97148084 331 257 C330.34 257 329.68 257 329 257 C329 257.99 329 258.98 329 260 C328.34 260 327.68 260 327 260 C326.5359375 260.928125 326.5359375 260.928125 326.0625 261.875 C325.375 263.25 324.6875 264.625 324 266 C323.34 266 322.68 266 322 266 C321.87625 266.721875 321.7525 267.44375 321.625 268.1875 C321.0095069 270.95721894 320.11555626 273.3970354 319 276 C318.34 276 317.68 276 317 276 C317 276.66 317 277.32 317 278 C316.34 278.33 315.68 278.66 315 279 C314.67 279.99 314.34 280.98 314 282 C313.34 282 312.68 282 312 282 C311.87625 282.53625 311.7525 283.0725 311.625 283.625 C310.87793984 286.4638286 309.94696636 289.22223202 309 292 C308.34 292 307.68 292 307 292 C307 293.32 307 294.64 307 296 C306.34 296 305.68 296 305 296 C303.92474806 298.65228812 302.90543849 301.28368454 302 304 C301.34 304 300.68 304 300 304 C299.731875 304.70125 299.46375 305.4025 299.1875 306.125 C297.9318551 309.1649824 296.49764877 312.0727774 295 315 C294.34 315 293.68 315 293 315 C292.87625 315.763125 292.7525 316.52625 292.625 317.3125 C292 320 292 320 290 323 C289.34 323 288.68 323 288 323 C287.896875 323.72960937 287.79375 324.45921875 287.6875 325.2109375 C286.93471159 328.26486321 285.8201028 330.07860619 284 332.625 C282.18765887 335.17796131 280.99770625 337.00688125 280 340 C279.34 340 278.68 340 278 340 C277.87625 340.5775 277.7525 341.155 277.625 341.75 C276.99351176 344.02335767 276.11141809 345.9253529 275 348 C274.34 348 273.68 348 273 348 C272.896875 348.55558594 272.79375 349.11117188 272.6875 349.68359375 C271.85806825 352.47821321 270.54801581 354.5953498 269 357.0625 C267.31203653 359.76080698 266.00950639 361.97148084 265 365 C264.34 365 263.68 365 263 365 C263 365.99 263 366.98 263 368 C262.34 368 261.68 368 261 368 C260.67 369.65 260.34 371.3 260 373 C259.34 373 258.68 373 258 373 C258 373.99 258 374.98 258 376 C257.34 376 256.68 376 256 376 C256 376.99 256 377.98 256 379 C255.34 379 254.68 379 254 379 C253.67 380.65 253.34 382.3 253 384 C252.34 384 251.68 384 251 384 C250.87625 384.5775 250.7525 385.155 250.625 385.75 C249.99351176 388.02335767 249.11141809 389.9253529 248 392 C247.34 392 246.68 392 246 392 C245.9175 392.515625 245.835 393.03125 245.75 393.5625 C244.67859775 397.04455732 242.86476395 399.87200885 241 403 C240.34 403 239.68 403 239 403 C237.92474806 405.65228812 236.90543849 408.28368454 236 411 C235.34 411 234.68 411 234 411 C233.87625 411.556875 233.7525 412.11375 233.625 412.6875 C232.94023145 415.22114364 232.00866237 417.57921032 231 420 C230.34 420 229.68 420 229 420 C228.87625 420.7425 228.7525 421.485 228.625 422.25 C228.04513299 424.80141485 227.26291261 426.7267573 226 429 C225.34 429 224.68 429 224 429 C223.9175 429.52464844 223.835 430.04929687 223.75 430.58984375 C222.71471931 433.91676137 220.87053087 436.65532877 219 439.5625 C216.09690948 444.07279648 216.09690948 444.07279648 214 449 C213.34 449 212.68 449 212 449 C211.690625 449.94875 211.38125 450.8975 211.0625 451.875 C210 455 210 455 209 457 C208.34 457 207.68 457 207 457 C207 457.99 207 458.98 207 460 C206.34 460 205.68 460 205 460 C204.67 461.65 204.34 463.3 204 465 C203.34 465 202.68 465 202 465 C201.01 467.97 200.02 470.94 199 474 C198.34 474 197.68 474 197 474 C197 474.99 197 475.98 197 477 C196.34 477 195.68 477 195 477 C194.896875 477.598125 194.79375 478.19625 194.6875 478.8125 C193.91123545 481.28243264 192.92911079 482.32251235 191 484 C187.84779203 482.66611831 186.38225922 481.52678794 184.6875 478.5625 C182.05901291 474.0776439 179.22328098 469.75331816 176.35546875 465.41796875 C175 463 175 463 175 460 C174.34 460 173.68 460 173 460 C172.67 458.35 172.34 456.7 172 455 C171.34 455 170.68 455 170 455 C170 454.01 170 453.02 170 452 C169.34 452 168.68 452 168 452 C165 446.25 165 446.25 165 444 C164.34 444 163.68 444 163 444 C162.45859375 442.86175781 161.9171875 441.72351563 161.359375 440.55078125 C158.60308633 435.03455803 155.1622676 430.01697484 151.71484375 424.91601562 C151.23660156 424.19478516 150.75835938 423.47355469 150.265625 422.73046875 C149.83024414 422.08489014 149.39486328 421.43931152 148.94628906 420.77416992 C148 419 148 419 148 416 C147.34 416 146.68 416 146 416 C143.95830515 413.09451118 143 411.59857954 143 408 C142.34 408 141.68 408 141 408 C138 402.25 138 402.25 138 400 C137.34 400 136.68 400 136 400 C133 394.375 133 394.375 133 391 C132.34 391 131.68 391 131 391 C129.7109375 389.35546875 129.7109375 389.35546875 128.375 387.1875 C127.92898438 386.47980469 127.48296875 385.77210938 127.0234375 385.04296875 C126 383 126 383 126 380 C125.34 380 124.68 380 124 380 C123.67 378.02 123.34 376.04 123 374 C122.34 374 121.68 374 121 374 C119.7109375 372.57421875 119.7109375 372.57421875 118.375 370.6875 C117.70597656 369.76517578 117.70597656 369.76517578 117.0234375 368.82421875 C116 367 116 367 116 364 C115.34 364 114.68 364 114 364 C111 358.375 111 358.375 111 355 C110.34 355 109.68 355 109 355 C109 354.01 109 353.02 109 352 C108.34 352 107.68 352 107 352 C106.46375 350.88625 105.9275 349.7725 105.375 348.625 C102.48144951 342.83789902 99.36128822 336.95845856 95.31640625 331.890625 C94 330 94 330 94 327 C93.34 327 92.68 327 92 327 C92 326.01 92 325.02 92 324 C91.34 324 90.68 324 90 324 C89.67 322.35 89.34 320.7 89 319 C88.34 319 87.68 319 87 319 C86.61328125 318.27554687 86.2265625 317.55109375 85.828125 316.8046875 C82.47236837 310.50363796 82.47236837 310.50363796 78.625 304.5 C77 302 77 302 77 299 C76.34 299 75.68 299 75 299 C72.95830515 296.09451118 72 294.59857954 72 291 C71.34 291 70.68 291 70 291 C69.69449219 290.40316406 69.38898438 289.80632812 69.07421875 289.19140625 C64.98255275 281.43452958 60.29764122 274.1468 55.48828125 266.8203125 C50 258.40426402 50 258.40426402 50 255 C49.34 255 48.68 255 48 255 C45 249.375 45 249.375 45 246 C44.34 246 43.68 246 43 246 C41.7109375 244.35546875 41.7109375 244.35546875 40.375 242.1875 C39.92898438 241.47980469 39.48296875 240.77210938 39.0234375 240.04296875 C38 238 38 238 38 235 C37.34 235 36.68 235 36 235 C33.95830515 232.09451118 33 230.59857954 33 227 C32.34 227 31.68 227 31 227 C30.34 225.68 29.68 224.36 29 223 C28.99576806 223.81550544 28.99153612 224.63101088 28.98717594 225.4712286 C28.88259008 245.57534061 28.77379748 265.67942632 28.66066074 285.78349209 C28.60603768 295.50677499 28.55271511 305.23006143 28.50268555 314.95336914 C28.12052003 388.99243073 28.12052003 388.99243073 27.5 414.25 C26.63192874 449.64782822 26.65597778 485.06474689 26.48259073 520.47125715 C26.43236366 530.69700107 26.37777123 540.92272049 26.32291877 551.14844048 C26.21062923 572.09893742 26.10348753 593.04945784 26 614 C23.59375 614.13671875 23.59375 614.13671875 21 614 C19.5 611.8125 19.5 611.8125 18 609 C17.113125 608.113125 16.22625 607.22625 15.3125 606.3125 C14.549375 605.549375 13.78625 604.78625 13 604 C13 603.34 13 602.68 13 602 C12.34 602 11.68 602 11 602 C9.6328125 600.42578125 9.6328125 600.42578125 8.125 598.3125 C6.34451528 595.84687778 4.56431707 593.47259434 2.625 591.125 C1 589 1 589 1 587 C0.34 587 -0.32 587 -1 587 C-1 586.01 -1 585.02 -1 584 C-1.66 584 -2.32 584 -3 584 C-3 583.34 -3 582.68 -3 582 C-3.54785156 581.79761719 -4.09570312 581.59523438 -4.66015625 581.38671875 C-7.92593763 579.45123897 -10.06356829 576.71279877 -12.4375 573.8125 C-12.92323486 573.22750732 -13.40896973 572.64251465 -13.90942383 572.03979492 C-23 561.0144674 -23 561.0144674 -23 558 C-23.66 558 -24.32 558 -25 558 C-26.5859375 556.42578125 -26.5859375 556.42578125 -28.375 554.3125 C-28.99246094 553.58417969 -29.60992188 552.85585938 -30.24609375 552.10546875 C-30.82488281 551.41066406 -31.40367188 550.71585938 -32 550 C-33.2065625 548.576875 -33.2065625 548.576875 -34.4375 547.125 C-36 545 -36 545 -36 543 C-36.66 543 -37.32 543 -38 543 C-38 542.34 -38 541.68 -38 541 C-38.66 541 -39.32 541 -40 541 C-43.26268306 537.41104863 -45.91159025 533.29976879 -48.25 529.0625 C-49.6590905 525.93932967 -49.6590905 525.93932967 -52 525 C-52 524.34 -52 523.68 -52 523 C-52.99 522.67 -53.98 522.34 -55 522 C-58 518.55555556 -58 518.55555556 -58 516 C-58.66 516 -59.32 516 -60 516 C-60 515.34 -60 514.68 -60 514 C-60.66 514 -61.32 514 -62 514 C-63.3671875 512.42578125 -63.3671875 512.42578125 -64.875 510.3125 C-66.65548472 507.84687778 -68.43568293 505.47259434 -70.375 503.125 C-72 501 -72 501 -72 499 C-72.66 499 -73.32 499 -74 499 C-77 495.53846154 -77 495.53846154 -77 493 C-77.66 493 -78.32 493 -79 493 C-79.33 491.68 -79.66 490.36 -80 489 C-80.66 489 -81.32 489 -82 489 C-82 488.34 -82 487.68 -82 487 C-82.66 487 -83.32 487 -84 487 C-85.21875 485.50390625 -85.21875 485.50390625 -86.5 483.5625 C-88.2865363 480.77468153 -88.2865363 480.77468153 -91 479 C-92.61251494 473.7578457 -93.25394835 469.12002327 -93.2784729 463.61123657 C-93.28426601 462.91035508 -93.29005912 462.20947359 -93.29602778 461.48735327 C-93.31292921 459.15379312 -93.31590054 456.8204327 -93.31884766 454.48681641 C-93.3281572 452.79460401 -93.33831743 451.10239611 -93.34925461 449.41019344 C-93.3766342 444.78275176 -93.39173074 440.15534055 -93.40466642 435.52783895 C-93.42060729 430.56327964 -93.44771421 425.59877934 -93.47329712 420.63426208 C-93.52111006 410.98109877 -93.55795296 401.32792394 -93.59042275 391.67469794 C-93.61674622 383.87099841 -93.64650077 376.06731925 -93.67858887 368.26364136 C-93.78112545 343.21047084 -93.86835188 318.1572883 -93.94069672 293.10401249 C-93.97236204 282.14914505 -94.00519946 271.19428716 -94.0435791 260.23944092 C-94.04719157 259.2081441 -94.05080404 258.17684729 -94.05452597 257.11429906 C-94.06175492 255.05333073 -94.06898523 252.99236241 -94.07621694 250.9313941 C-94.14014928 232.63831441 -94.19170487 214.34525919 -94.22139931 196.05208969 C-94.22431626 194.25931548 -94.22723766 192.46654128 -94.23016357 190.67376709 C-94.23158792 189.79414613 -94.23301227 188.91452518 -94.23447978 188.00824904 C-94.24515655 181.82971404 -94.26310508 175.6512254 -94.28399658 169.47271729 C-94.30909217 161.99706232 -94.32356872 154.52148067 -94.32393897 147.04578191 C-94.32436197 143.26861058 -94.32943511 139.49160701 -94.34758377 135.71447563 C-94.36692721 131.65077051 -94.362911 127.58742752 -94.35644531 123.52368164 C-94.36566324 122.34464579 -94.37488117 121.16560993 -94.38437843 119.95084572 C-94.35323329 113.88019574 -94.05553399 109.31442874 -91 104 C-89 102.875 -89 102.875 -87 102 C-85.97695052 100.34738161 -84.97383946 98.68208635 -84 97 C-83.34 97 -82.68 97 -82 97 C-81.75378906 96.27039063 -81.50757813 95.54078125 -81.25390625 94.7890625 C-79.86442138 91.6984326 -78.26386052 89.8285513 -75.9375 87.375 C-70.26129184 81.2487365 -64.63987504 74.95981256 -60 68 C-59.34 68 -58.68 68 -58 68 C-57.505 66.515 -57.505 66.515 -57 65 C-56.34 65 -55.68 65 -55 65 C-55 64.34 -55 63.68 -55 63 C-54.34 63 -53.68 63 -53 63 C-52.67 61.68 -52.34 60.36 -52 59 C-51.34 59 -50.68 59 -50 59 C-50 58.01 -50 57.02 -50 56 C-49.34 56 -48.68 56 -48 56 C-47.731875 55.195625 -47.46375 54.39125 -47.1875 53.5625 C-46.795625 52.716875 -46.40375 51.87125 -46 51 C-45.01 50.67 -44.02 50.34 -43 50 C-41.94556501 48.16286025 -41.94556501 48.16286025 -41 46 C-40.03327536 44.56042092 -39.03215692 43.14341184 -38 41.75 C-37.484375 41.04359375 -36.96875 40.3371875 -36.4375 39.609375 C-35.963125 39.07828125 -35.48875 38.5471875 -35 38 C-34.34 38 -33.68 38 -33 38 C-32.74347656 37.42378906 -32.48695312 36.84757812 -32.22265625 36.25390625 C-30.47115417 33.02509889 -28.03851686 30.58849747 -25.55859375 27.90234375 C-23.7955971 25.98116107 -23.7955971 25.98116107 -23 23 C-21.35570171 21.31126121 -19.68615782 19.64694485 -18 18 C-15.64639602 15.25412869 -14.14576613 13.43729839 -13 10 C-12.34 10 -11.68 10 -11 10 C-10.773125 9.4225 -10.54625 8.845 -10.3125 8.25 C-8.62732723 5.3611324 -6.77312935 3.8487529 -4 2 C-2.68 2 -1.36 2 0 2 C0 1.34 0 0.68 0 0 Z " fill="#010101" transform="translate(1464,459)"/>
<path d="M0 0 C16.1503192 -0.02332909 32.30063296 -0.04097922 48.45096493 -0.05181217 C55.94933064 -0.05697511 63.44768591 -0.06401776 70.94604492 -0.07543945 C77.47930504 -0.08538637 84.01255759 -0.09185344 90.54582506 -0.09408849 C94.00721807 -0.09539559 97.46858942 -0.09848136 100.92997551 -0.10573006 C104.78787527 -0.11374407 108.64575357 -0.11399113 112.50366211 -0.11352539 C114.23750656 -0.1189183 114.23750656 -0.1189183 116.00637817 -0.12442017 C117.05110794 -0.1230455 118.09583771 -0.12167084 119.17222595 -0.12025452 C120.54247122 -0.12163721 120.54247122 -0.12163721 121.94039822 -0.12304783 C124 0 124 0 125 1 C125.09688002 2.52735219 125.12371701 4.05919431 125.12304783 5.58961582 C125.12503888 6.58785801 125.12702993 7.58610019 125.12908131 8.61459213 C125.12616847 9.72449051 125.12325563 10.83438888 125.12025452 11.97792053 C125.12110894 13.14667093 125.12196337 14.31542133 125.12284368 15.51958841 C125.12421185 18.7781938 125.12106444 22.03675994 125.11606562 25.29536068 C125.11176437 28.80389669 125.11320731 32.31243073 125.1139679 35.82096863 C125.11449334 41.90457154 125.11134443 47.98816377 125.10573006 54.07176399 C125.0976178 62.86772831 125.09500012 71.66368744 125.09374207 80.4596551 C125.09155111 94.72904709 125.08488986 108.99843337 125.07543945 123.26782227 C125.06626645 137.13273083 125.05918507 150.99763785 125.05493164 164.86254883 C125.05466892 165.71656684 125.05440619 166.57058485 125.05413551 167.4504822 C125.05283051 171.73465593 125.05156679 176.01882968 125.05032361 180.30300343 C125.03994965 215.86867302 125.02233016 251.43433598 125 287 C125.66 285.68 126.32 284.36 127 283 C127.66 283 128.32 283 129 283 C129 282.34 129 281.68 129 281 C129.66 281 130.32 281 131 281 C131.33 279.68 131.66 278.36 132 277 C132.66 277 133.32 277 134 277 C134.2475 276.28328125 134.495 275.5665625 134.75 274.828125 C136.1360211 271.69225225 137.83787825 269.40495833 140 266.75 C140.70125 265.87859375 141.4025 265.0071875 142.125 264.109375 C144 262 144 262 146 261 C147.04808041 259.02477154 148.0520411 257.02518491 149 255 C149.66 255 150.32 255 151 255 C151.309375 254.38125 151.61875 253.7625 151.9375 253.125 C152.625 251.75 153.3125 250.375 154 249 C154.66 249 155.32 249 156 249 C156.37125 248.18789063 156.37125 248.18789063 156.75 247.359375 C158.27988604 244.4717151 160.09150997 241.90223982 162 239.25 C162.70125 238.26515625 163.4025 237.2803125 164.125 236.265625 C165.053125 235.14414062 165.053125 235.14414062 166 234 C166.66 234 167.32 234 168 234 C168.268125 233.42765625 168.53625 232.8553125 168.8125 232.265625 C170.04132636 229.92115366 171.42522176 227.87595062 173 225.75 C173.515625 225.04359375 174.03125 224.3371875 174.5625 223.609375 C175.036875 223.07828125 175.51125 222.5471875 176 222 C176.66 222 177.32 222 178 222 C178 221.34 178 220.68 178 220 C178.66 220 179.32 220 180 220 C180.33837891 218.95392578 180.33837891 218.95392578 180.68359375 217.88671875 C182.28720592 214.37019235 184.54369403 211.69469806 187.0625 208.8125 C190.36774605 205.14127057 190.36774605 205.14127057 193 201 C193.66 201 194.32 201 195 201 C195.309375 200.38125 195.61875 199.7625 195.9375 199.125 C196.625 197.75 197.3125 196.375 198 195 C198.66 195 199.32 195 200 195 C200.268125 194.2575 200.53625 193.515 200.8125 192.75 C201.95276751 190.10938051 203.09380306 188.14447156 205 186 C205.66 186 206.32 186 207 186 C207.33 184.68 207.66 183.36 208 182 C208.66 182 209.32 182 210 182 C210 181.34 210 180.68 210 180 C210.66 180 211.32 180 212 180 C212.309375 179.38125 212.61875 178.7625 212.9375 178.125 C213.625 176.75 214.3125 175.375 215 174 C215.66 174 216.32 174 217 174 C217.3403125 173.195625 217.3403125 173.195625 217.6875 172.375 C219.41628055 169.24673044 221.70895262 166.73808101 224 164 C224.556875 163.05125 225.11375 162.1025 225.6875 161.125 C226.120625 160.42375 226.55375 159.7225 227 159 C227.66 159 228.32 159 229 159 C229.309375 158.38125 229.61875 157.7625 229.9375 157.125 C230.625 155.75 231.3125 154.375 232 153 C232.66 153 233.32 153 234 153 C234.309375 152.38125 234.61875 151.7625 234.9375 151.125 C235.625 149.75 236.3125 148.375 237 147 C237.66 147 238.32 147 239 147 C239.309375 146.38125 239.61875 145.7625 239.9375 145.125 C240.625 143.75 241.3125 142.375 242 141 C242.66 141 243.32 141 244 141 C244.0825 140.443125 244.165 139.88625 244.25 139.3125 C245.23895541 136.26322081 246.84757466 134.34810037 249 132 C249.66 132 250.32 132 251 132 C251.37125 130.92685547 251.37125 130.92685547 251.75 129.83203125 C253.13863595 126.68590294 254.84463946 124.36189037 257 121.6875 C257.70125 120.80449219 258.4025 119.92148437 259.125 119.01171875 C259.74375 118.34785156 260.3625 117.68398438 261 117 C261.66 117 262.32 117 263 117 C263.185625 116.319375 263.37125 115.63875 263.5625 114.9375 C265.2745681 111.43892605 267.47864586 109.41819477 270.26953125 106.75390625 C272.58151968 104.41060421 274.21734354 101.76024226 276 99 C277.5413711 97.13783593 279.12379801 95.32160426 280.73046875 93.515625 C282.0919436 92.00903035 282.0919436 92.00903035 283 90 C283.66 90 284.32 90 285 90 C285.433125 89.1028125 285.433125 89.1028125 285.875 88.1875 C287 86 287 86 289 83 C289.66 83 290.32 83 291 83 C291.27328125 82.41734375 291.5465625 81.8346875 291.828125 81.234375 C292.97700107 79.0438513 294.2445887 77.20865341 295.75 75.25 C297.41131733 73.0837725 299.05944694 70.91755943 300.65625 68.703125 C301.44515625 67.61257813 301.44515625 67.61257813 302.25 66.5 C302.72953125 65.8296875 303.2090625 65.159375 303.703125 64.46875 C304.13109375 63.9840625 304.5590625 63.499375 305 63 C305.66 63 306.32 63 307 63 C307.268125 62.42765625 307.53625 61.8553125 307.8125 61.265625 C309.04132636 58.92115366 310.42522176 56.87595062 312 54.75 C312.515625 54.04359375 313.03125 53.3371875 313.5625 52.609375 C314.036875 52.07828125 314.51125 51.5471875 315 51 C315.66 51 316.32 51 317 51 C317.309375 49.9790625 317.309375 49.9790625 317.625 48.9375 C319.42895027 45.08360625 321.9010345 41.92212236 325 39 C325.66 39 326.32 39 327 39 C327.185625 38.34 327.37125 37.68 327.5625 37 C329.32198888 33.32802321 331.69983645 30.75048968 334.44140625 27.76953125 C336.07056716 26.07185494 336.07056716 26.07185494 337 24 C337.66 24 338.32 24 339 24 C339.268125 23.42765625 339.53625 22.8553125 339.8125 22.265625 C341.04132636 19.92115366 342.42522176 17.87595062 344 15.75 C344.515625 15.04359375 345.03125 14.3371875 345.5625 13.609375 C346.2740625 12.81273437 346.2740625 12.81273437 347 12 C347.66 12 348.32 12 349 12 C349.20625 11.319375 349.4125 10.63875 349.625 9.9375 C351.54676459 5.83191202 353.207839 2.63913244 357 0 C361.76453019 -1.03183895 366.50949119 -0.88585532 371.35888672 -0.79467773 C372.82773239 -0.79270179 374.29658497 -0.79381433 375.76542664 -0.79777527 C379.74282651 -0.7997803 383.71874278 -0.75868495 387.6957984 -0.70975757 C391.85572592 -0.66593935 396.01568908 -0.66188185 400.17581177 -0.65357971 C408.04890884 -0.63183995 415.9213239 -0.57442054 423.79412091 -0.50413328 C432.75892643 -0.42583753 441.72376486 -0.38739028 450.68882728 -0.35226524 C469.12627123 -0.27913599 487.56308074 -0.15604539 506 0 C506.66 1.32 507.32 2.64 508 4 C507.34 4 506.68 4 506 4 C505.75507812 4.55300781 505.51015625 5.10601562 505.2578125 5.67578125 C501.13099294 13.30142609 494.3458804 19.84271456 488.53125 26.22265625 C486.93160961 27.93262428 486.93160961 27.93262428 486 30 C485.34 30 484.68 30 484 30 C483.814375 30.66 483.62875 31.32 483.4375 32 C481.67801112 35.67197679 479.30016355 38.24951032 476.55859375 41.23046875 C474.92943284 42.92814506 474.92943284 42.92814506 474 45 C473.34 45 472.68 45 472 45 C471.62875 45.82757813 471.62875 45.82757813 471.25 46.671875 C469.75765526 49.45136707 467.96327477 51.7814707 466 54.25 C465.29875 55.14203125 464.5975 56.0340625 463.875 56.953125 C463.25625 57.62859375 462.6375 58.3040625 462 59 C461.34 59 460.68 59 460 59 C459.67 60.32 459.34 61.64 459 63 C458.34 63 457.68 63 457 63 C456.73316406 63.58652344 456.46632813 64.17304687 456.19140625 64.77734375 C454.97631623 67.04418381 453.66848194 68.66783182 451.9375 70.5625 C446.67758395 76.44122971 441.3798651 82.43020235 437 89 C436.34 89 435.68 89 435 89 C434.731875 89.7425 434.46375 90.485 434.1875 91.25 C433.04723249 93.89061949 431.90619694 95.85552844 430 98 C429.34 98 428.68 98 428 98 C427.94199219 98.54140625 427.88398437 99.0828125 427.82421875 99.640625 C426.63671502 103.03992477 424.27276381 105.21609728 421.8125 107.75 C418.00577552 111.77188717 414.50748642 115.81507672 411.2734375 120.3203125 C409.41109034 122.77678268 407.20630121 124.85498494 405 127 C404.34 127.99 403.68 128.98 403 130 C402.34 130 401.68 130 401 130 C401 130.66 401 131.32 401 132 C400.34 132 399.68 132 399 132 C398.67 133.32 398.34 134.64 398 136 C397.34 136 396.68 136 396 136 C395.87625 136.598125 395.7525 137.19625 395.625 137.8125 C395 140 395 140 393 143 C392.34 143 391.68 143 391 143 C391 143.66 391 144.32 391 145 C390.34 145 389.68 145 389 145 C388.67 146.32 388.34 147.64 388 149 C387.34 149 386.68 149 386 149 C385.62875 149.81210937 385.62875 149.81210937 385.25 150.640625 C383.72011396 153.5282849 381.90849003 156.09776018 380 158.75 C379.29875 159.73484375 378.5975 160.7196875 377.875 161.734375 C377.25625 162.48203125 376.6375 163.2296875 376 164 C375.34 164 374.68 164 374 164 C373.690625 164.61875 373.38125 165.2375 373.0625 165.875 C372.375 167.25 371.6875 168.625 371 170 C370.34 170 369.68 170 369 170 C369 170.66 369 171.32 369 172 C368.34 172 367.68 172 367 172 C366.731875 172.639375 366.46375 173.27875 366.1875 173.9375 C365 176 365 176 362 177 C360.955847 178.81619409 360.955847 178.81619409 360 181 C357.75797696 184.39770502 355.37383263 187.69341401 353 191 C352.43152344 191.80179688 351.86304688 192.60359375 351.27734375 193.4296875 C350.75269531 194.15414062 350.22804688 194.87859375 349.6875 195.625 C349.21699219 196.27726563 348.74648437 196.92953125 348.26171875 197.6015625 C347.84535156 198.06304688 347.42898438 198.52453125 347 199 C346.34 199 345.68 199 345 199 C344.690625 199.61875 344.38125 200.2375 344.0625 200.875 C343.375 202.25 342.6875 203.625 342 205 C341.34 205 340.68 205 340 205 C339.731875 205.58265625 339.46375 206.1653125 339.1875 206.765625 C337.98519009 209.02786601 336.66174087 210.80576318 335 212.75 C334.484375 213.36359375 333.96875 213.9771875 333.4375 214.609375 C332 216 332 216 330 216 C329.731875 216.7425 329.46375 217.485 329.1875 218.25 C328.04723249 220.89061949 326.90619694 222.85552844 325 225 C324.34 225 323.68 225 323 225 C322.67 226.32 322.34 227.64 322 229 C321.34 229 320.68 229 320 229 C319.6596875 229.7734375 319.6596875 229.7734375 319.3125 230.5625 C317.51782382 233.89547005 315.50034985 237.14703671 313 240 C312.34 240 311.68 240 311 240 C310.731875 240.57234375 310.46375 241.1446875 310.1875 241.734375 C308.95867364 244.07884634 307.57477824 246.12404938 306 248.25 C305.484375 248.95640625 304.96875 249.6628125 304.4375 250.390625 C303.7259375 251.18726563 303.7259375 251.18726563 303 252 C302.34 252 301.68 252 301 252 C300.67 253.32 300.34 254.64 300 256 C299.34 256 298.68 256 298 256 C297.7525 256.55171875 297.505 257.1034375 297.25 257.671875 C295.75765526 260.45136707 293.96327477 262.7814707 292 265.25 C291.29875 266.14203125 290.5975 267.0340625 289.875 267.953125 C289.25625 268.62859375 288.6375 269.3040625 288 270 C287.34 270 286.68 270 286 270 C286 270.66 286 271.32 286 272 C285.34 272 284.68 272 284 272 C283.67 273.32 283.34 274.64 283 276 C282.34 276 281.68 276 281 276 C280.731875 276.763125 280.46375 277.52625 280.1875 278.3125 C279.04865495 280.88988618 278.18583329 282.26954864 276 284 C275.34 284 274.68 284 274 284 C272.15246862 287.11770921 271.45717312 289.38115411 272 293 C273.9375006 295.18777466 273.9375006 295.18777466 276 297 C276 297.66 276 298.32 276 299 C276.66 299 277.32 299 278 299 C278.33 300.32 278.66 301.64 279 303 C279.66 303 280.32 303 281 303 C282.9453125 305.1171875 282.9453125 305.1171875 285.125 307.875 C285.84945313 308.77992188 286.57390625 309.68484375 287.3203125 310.6171875 C289 313 289 313 289 315 C289.66 315 290.32 315 291 315 C292.6640625 316.8359375 292.6640625 316.8359375 294.625 319.375 C295.3365625 320.28636719 296.048125 321.19773437 296.78125 322.13671875 C297.5134375 323.08160156 298.245625 324.02648437 299 325 C300.37133339 326.73207595 301.74620653 328.46135663 303.125 330.1875 C303.77726562 331.00605469 304.42953125 331.82460938 305.1015625 332.66796875 C306.8560584 334.82318284 308.66198135 336.91604928 310.5 339 C313 342 313 342 313 344 C313.66 344 314.32 344 315 344 C318 347.46153846 318 347.46153846 318 350 C318.66 350 319.32 350 320 350 C321.3337216 351.68113694 322.59271116 353.42195478 323.8125 355.1875 C327.03903267 359.79397143 327.03903267 359.79397143 330.875 363.875 C333.14204692 366.14204692 334.04654866 367.9662912 335 371 C335.66 371 336.32 371 337 371 C338.51984883 372.67535459 339.96706453 374.41705622 341.375 376.1875 C342.14585937 377.15042969 342.91671875 378.11335938 343.7109375 379.10546875 C344.46632813 380.06066406 345.22171875 381.01585937 346 382 C346.75539063 382.90363281 347.51078125 383.80726563 348.2890625 384.73828125 C350 387 350 387 350 389 C350.66 389 351.32 389 352 389 C352 389.66 352 390.32 352 391 C352.66 391 353.32 391 354 391 C355.9453125 393.1171875 355.9453125 393.1171875 358.125 395.875 C358.84945313 396.77992188 359.57390625 397.68484375 360.3203125 398.6171875 C362 401 362 401 362 403 C362.66 403 363.32 403 364 403 C367 407.38461538 367 407.38461538 367 410 C367.66 410 368.32 410 369 410 C370.625 411.375 370.625 411.375 372 413 C372 413.66 372 414.32 372 415 C372.66 415 373.32 415 374 415 C375.26171875 416.46875 375.26171875 416.46875 376.6875 418.5 C379.45944086 422.34649571 382.47071381 425.84913059 385.6796875 429.3359375 C387 431 387 431 387 433 C387.66 433 388.32 433 389 433 C390.875 435.046875 390.875 435.046875 393 437.75 C393.70125 438.63171875 394.4025 439.5134375 395.125 440.421875 C396.69307683 442.57798064 397.91326484 444.57748621 399 447 C399.66 447 400.32 447 401 447 C402.3671875 448.57421875 402.3671875 448.57421875 403.875 450.6875 C405.65548472 453.15312222 407.43568293 455.52740566 409.375 457.875 C411 460 411 460 411 462 C411.66 462 412.32 462 413 462 C418 467.47619048 418 467.47619048 418 470 C418.66 470 419.32 470 420 470 C420.33 471.32 420.66 472.64 421 474 C421.66 474 422.32 474 423 474 C423 474.66 423 475.32 423 476 C423.66 476 424.32 476 425 476 C428.48945219 479.82132943 431.44759763 484.03231242 433 489 C433.66 489 434.32 489 435 489 C436.35517144 490.70129749 437.63522958 492.46285924 438.875 494.25 C441.37188784 497.83868291 443.85532414 500.96785727 447 504 C448.19929776 505.34372932 449.38712157 506.69779887 450.5625 508.0625 C452.22924893 509.9965227 453.85911391 511.86681612 455.71484375 513.62109375 C457 515 457 515 457 517 C457.66 517 458.32 517 459 517 C459.33 518.32 459.66 519.64 460 521 C460.66 521 461.32 521 462 521 C467 526.47619048 467 526.47619048 467 529 C467.66 529 468.32 529 469 529 C469.33 530.32 469.66 531.64 470 533 C470.66 533 471.32 533 472 533 C472.66 534.65 473.32 536.3 474 538 C474.66 538 475.32 538 476 538 C477.9453125 540.1171875 477.9453125 540.1171875 480.125 542.875 C480.84945313 543.77992188 481.57390625 544.68484375 482.3203125 545.6171875 C484 548 484 548 484 550 C484.66 550 485.32 550 486 550 C489 553.46153846 489 553.46153846 489 556 C489.66 556 490.32 556 491 556 C491.33 557.32 491.66 558.64 492 560 C492.66 560 493.32 560 494 560 C494 560.66 494 561.32 494 562 C494.66 562 495.32 562 496 562 C497.3671875 563.57421875 497.3671875 563.57421875 498.875 565.6875 C500.65548472 568.15312222 502.43568293 570.52740566 504.375 572.875 C506 575 506 575 506 577 C506.66 577 507.32 577 508 577 C511 580.46153846 511 580.46153846 511 583 C511.66 583 512.32 583 513 583 C513.33 584.32 513.66 585.64 514 587 C514.66 587 515.32 587 516 587 C516 587.66 516 588.32 516 589 C516.66 589 517.32 589 518 589 C519.4375 590.609375 519.4375 590.609375 521 592.75 C521.515625 593.44609375 522.03125 594.1421875 522.5625 594.859375 C523.89995249 596.85101621 524.98355423 598.83027923 526 601 C526.66 601 527.32 601 528 601 C529.2890625 602.3203125 529.2890625 602.3203125 530.625 604.125 C531.29402344 604.99511719 531.29402344 604.99511719 531.9765625 605.8828125 C533.31948629 608.66092202 533.06804376 610.94945818 533 614 C517.44809213 614.04687773 501.89619723 614.08206571 486.34423542 614.10362434 C479.12196289 614.11390382 471.89973445 614.12789987 464.67749023 614.15087891 C458.37703917 614.17091539 452.07662006 614.18374058 445.77613801 614.18817699 C442.44509805 614.19076716 439.11422137 614.19786038 435.7831974 614.21146011 C432.04982832 614.22608907 428.31664532 614.22797318 424.58325195 614.22705078 C423.49855118 614.23424133 422.4138504 614.24143188 421.29627991 614.24884033 C413.70285822 614.22868864 406.47342793 613.29888233 399 612 C397.56344363 611.78525638 396.12610619 611.57555239 394.6875 611.375 C393.3571875 611.189375 393.3571875 611.189375 392 611 C392 610.34 392 609.68 392 609 C391.29488281 609.0515625 390.58976562 609.103125 389.86328125 609.15625 C386.45982939 608.97052275 384.24828799 607.97507855 381.1875 606.5 C380.21167969 606.0359375 379.23585938 605.571875 378.23046875 605.09375 C377.12638672 604.55234375 377.12638672 604.55234375 376 604 C376 603.34 376 602.68 376 602 C375.4225 601.87625 374.845 601.7525 374.25 601.625 C371.97664233 600.99351176 370.0746471 600.11141809 368 599 C368 598.34 368 597.68 368 597 C367.34 597 366.68 597 366 597 C366 596.34 366 595.68 366 595 C365.1028125 594.87625 365.1028125 594.87625 364.1875 594.75 C361.37067727 593.78423221 360.52200868 592.51131433 359 590 C359 589.34 359 588.68 359 588 C358.01 587.67 357.02 587.34 356 587 C356 586.34 356 585.68 356 585 C355.34 585 354.68 585 354 585 C352.37890625 583.171875 352.37890625 583.171875 350.5625 580.75 C349.66724609 579.56664062 349.66724609 579.56664062 348.75390625 578.359375 C347.88572266 577.19148438 347.88572266 577.19148438 347 576 C346.43152344 575.28328125 345.86304688 574.5665625 345.27734375 573.828125 C344 572 344 572 344 570 C343.34 570 342.68 570 342 570 C340.0546875 567.8828125 340.0546875 567.8828125 337.875 565.125 C337.15054687 564.22007812 336.42609375 563.31515625 335.6796875 562.3828125 C334 560 334 560 334 558 C333.34 558 332.68 558 332 558 C330.20460444 555.9102773 328.52938558 553.82157918 326.875 551.625 C326.40707031 551.02171875 325.93914062 550.4184375 325.45703125 549.796875 C322 545.26141126 322 545.26141126 322 543 C321.34 543 320.68 543 320 543 C318.12998922 540.80644768 316.36568034 538.60515924 314.625 536.3125 C313.65898713 535.05849131 312.69284349 533.80458335 311.7265625 532.55078125 C311.26540039 531.94572754 310.80423828 531.34067383 310.32910156 530.71728516 C309.13522647 529.17472134 307.89453253 527.6686646 306.6484375 526.16796875 C305 524 305 524 305 522 C304.34 522 303.68 522 303 522 C300 518.53846154 300 518.53846154 300 516 C299.34 516 298.68 516 298 516 C293 510.52380952 293 510.52380952 293 508 C292.34 508 291.68 508 291 508 C290.67 506.68 290.34 505.36 290 504 C289.34 504 288.68 504 288 504 C286.7109375 502.5390625 286.7109375 502.5390625 285.375 500.625 C284.92898438 499.99851562 284.48296875 499.37203125 284.0234375 498.7265625 C283 497 283 497 283 495 C282.34 495 281.68 495 281 495 C276.87410583 490.52364378 272.98465733 485.68699754 269.6875 480.5625 C268.00825523 478.01253571 266.18639497 476.1158661 264 474 C261 470.35714286 261 470.35714286 261 468 C260.34 468 259.68 468 259 468 C257.41466298 466.28667246 255.90458785 464.50310953 254.4375 462.6875 C253.63183594 461.70136719 252.82617188 460.71523438 251.99609375 459.69921875 C250 457 250 457 249 454 C248.34 454 247.68 454 247 454 C246.67 453.01 246.34 452.02 246 451 C245.34 450.360625 244.68 449.72125 244 449.0625 C241.94497246 446.94325285 241.40893155 445.86252086 241 443 C240.34 443 239.68 443 239 443 C239 442.34 239 441.68 239 441 C238.34 441 237.68 441 237 441 C235.0546875 438.8828125 235.0546875 438.8828125 232.875 436.125 C231.78832031 434.76761719 231.78832031 434.76761719 230.6796875 433.3828125 C229 431 229 431 229 429 C228.34 429 227.68 429 227 429 C227 428.34 227 427.68 227 427 C226.34 427 225.68 427 225 427 C224.67 425.68 224.34 424.36 224 423 C223.34 423 222.68 423 222 423 C220.7109375 421.5390625 220.7109375 421.5390625 219.375 419.625 C218.92898438 418.99851562 218.48296875 418.37203125 218.0234375 417.7265625 C217 416 217 416 217 414 C216.34 414 215.68 414 215 414 C213.0546875 411.8828125 213.0546875 411.8828125 210.875 409.125 C209.78832031 407.76761719 209.78832031 407.76761719 208.6796875 406.3828125 C207 404 207 404 207 402 C206.34 402 205.68 402 205 402 C205 401.34 205 400.68 205 400 C204.34 400 203.68 400 203 400 C202.67 398.68 202.34 397.36 202 396 C201.34 396 200.68 396 200 396 C200 395.34 200 394.68 200 394 C199.34 394 198.68 394 198 394 C197.67 392.35 197.34 390.7 197 389 C196.34 389 195.68 389 195 389 C195 388.34 195 387.68 195 387 C190.50400354 387.46996479 188.76100766 388.83206152 185.875 392.25 C185.21242188 393.01828125 184.54984375 393.7865625 183.8671875 394.578125 C182.02809104 396.96356393 180.50467279 399.39392408 179 402 C177.4375 404.3125 177.4375 404.3125 176 406 C175.34 406 174.68 406 174 406 C173.67 406.99 173.34 407.98 173 409 C172.34 409 171.68 409 171 409 C171 409.66 171 410.32 171 411 C170.34 411 169.68 411 169 411 C168.67 412.32 168.34 413.64 168 415 C167.34 415 166.68 415 166 415 C165.9175 415.556875 165.835 416.11375 165.75 416.6875 C164.76104459 419.73677919 163.15242534 421.65189963 161 424 C160.34 424 159.68 424 159 424 C158.731875 424.804375 158.46375 425.60875 158.1875 426.4375 C157.795625 427.283125 157.40375 428.12875 157 429 C156.01 429.33 155.02 429.66 154 430 C152.94978897 431.84971696 152.94978897 431.84971696 152 434 C150.5 436.25 150.5 436.25 149 438 C148.34 438 147.68 438 147 438 C146.67 439.32 146.34 440.64 146 442 C145.34 442 144.68 442 144 442 C143.731875 442.7425 143.46375 443.485 143.1875 444.25 C142.04723249 446.89061949 140.90619694 448.85552844 139 451 C138.34 451 137.68 451 137 451 C136.76397568 451.57451401 136.52795135 452.14902802 136.28477478 452.74095154 C135 455 135 455 132.87452698 456.89393616 C127.07854579 462.26054767 125.45697532 466.608983 124.97694302 474.33684444 C124.81378153 480.12223265 124.84131556 485.89683867 124.90234375 491.68359375 C124.89667699 494.22397508 124.88704806 496.76435032 124.87367249 499.30470276 C124.85159165 505.30993064 124.86920356 511.31375476 124.90644604 517.31880099 C124.94992698 524.7080841 124.93239938 532.09697699 124.91601562 539.48632812 C124.89992446 549.40962528 124.90963256 559.33238805 124.94897461 569.25561523 C124.95224227 570.37603934 124.95550993 571.49646345 124.95887661 572.65083981 C124.97736619 578.72121357 125.01598775 584.79076541 125.07693481 590.86087036 C125.09512557 593.42685859 125.1131856 595.99284774 125.13110352 598.55883789 C125.14748084 599.761407 125.16385817 600.96397612 125.18073177 602.20298672 C125.18667638 603.31223538 125.19262098 604.42148405 125.19874573 605.56434631 C125.2085978 606.54384278 125.21844988 607.52333925 125.2286005 608.53251743 C125 611 125 611 123 614 C120.85137844 614.3719368 120.85137844 614.3719368 118.1346283 614.36749268 C117.10679733 614.37306183 116.07896637 614.37863098 115.01998901 614.3843689 C113.88796051 614.37515411 112.75593201 614.36593933 111.58959961 614.35644531 C109.80666756 614.35951187 109.80666756 614.35951187 107.98771667 614.36264038 C104.7232658 614.36513787 101.45919142 614.35422318 98.19479442 614.33711338 C94.78396912 614.32210308 91.37314833 614.32325204 87.96229553 614.32244873 C82.23481871 614.31875399 76.50746158 614.30377539 70.7800293 614.28125 C63.41966468 614.25236216 56.05939643 614.24202597 48.69898129 614.2375679 C42.38143264 614.23359294 36.06390509 614.2210909 29.74637151 614.20722103 C27.71041553 614.20311607 25.67446031 614.2001935 23.63850212 614.19742584 C19.85263073 614.19058933 16.06684892 614.17696973 12.28100586 614.16113281 C11.14695312 614.16001495 10.01290039 614.15889709 8.84448242 614.15774536 C7.81947128 614.15203522 6.79446014 614.14632507 5.73838806 614.14044189 C4.84223754 614.13746723 3.94608702 614.13449257 3.02278042 614.13142776 C1 614 1 614 0 613 C-0.0967899 611.65124377 -0.12447429 610.29745224 -0.1241985 608.94522756 C-0.12644579 608.06429553 -0.12869308 607.18336349 -0.13100848 606.27573654 C-0.12838146 605.2948998 -0.12575445 604.31406306 -0.12304783 603.30350399 C-0.12420167 602.26737708 -0.12535552 601.23125016 -0.12654433 600.16372547 C-0.12921945 596.64509968 -0.12468151 593.12651843 -0.12025452 589.6078949 C-0.12069004 587.07852911 -0.12156459 584.54916336 -0.12284368 582.01979786 C-0.1246214 576.49641571 -0.12326382 570.97304769 -0.11920547 565.44966698 C-0.11318749 557.23651532 -0.11286808 549.02337048 -0.11374746 540.81021702 C-0.11506355 526.99653237 -0.11171169 513.1828525 -0.10573006 499.36916924 C-0.09981978 485.68529677 -0.09596548 472.0014263 -0.09487724 458.31755257 C-0.0948085 457.46779073 -0.09473976 456.61802889 -0.09466894 455.7425167 C-0.09433062 451.42727813 -0.09402923 447.11203955 -0.09374207 442.79680098 C-0.09163979 412.20543432 -0.08489724 381.61407027 -0.07543945 351.02270508 C-0.06626002 321.2974448 -0.05917396 291.57218524 -0.05493164 261.84692383 C-0.05480011 260.93119908 -0.05466859 260.01547433 -0.05453308 259.07200035 C-0.05321459 249.87619582 -0.05193877 240.68039129 -0.05069422 231.48458675 C-0.04815778 212.75047174 -0.04533652 194.01635677 -0.04234314 175.28224182 C-0.04220585 174.4208144 -0.04206856 173.55938698 -0.04192711 172.6718557 C-0.03272126 115.11456938 -0.01685471 57.55728453 0 0 Z " fill="#010101" transform="translate(879,461)"/>
<path d="M0 0 C0.98871094 -0.00322266 1.97742187 -0.00644531 2.99609375 -0.00976562 C8.48106043 0.03051117 13.07235402 0.49601473 18.25 2.3125 C18.98347656 2.55871094 19.71695312 2.80492187 20.47265625 3.05859375 C24.53352045 4.584651 28.40170924 6.29214735 32.25 8.3125 C32.25 8.9725 32.25 9.6325 32.25 10.3125 C32.84852783 10.42424561 33.44705566 10.53599121 34.0637207 10.65112305 C37.64453812 11.7343653 39.8831214 14.51515841 42.4375 17.125 C42.98341797 17.65931641 43.52933594 18.19363281 44.09179688 18.74414062 C46.84910705 21.52195125 48.53189388 23.46620556 49.25 27.3125 C49.91 27.3125 50.57 27.3125 51.25 27.3125 C51.25 28.3025 51.25 29.2925 51.25 30.3125 C51.91 30.3125 52.57 30.3125 53.25 30.3125 C56.25 36.8125 56.25 36.8125 56.25 41.3125 C56.91 41.3125 57.57 41.3125 58.25 41.3125 C59.89732407 52.02010645 59.31689733 62.56731974 58.25 73.3125 C57.59 73.3125 56.93 73.3125 56.25 73.3125 C56.311875 73.951875 56.37375 74.59125 56.4375 75.25 C56.17439224 79.54742674 54.72182579 83.29126168 53.25 87.3125 C52.59 87.3125 51.93 87.3125 51.25 87.3125 C51.04375 87.9725 50.8375 88.6325 50.625 89.3125 C47.2832613 96.60356626 42.15235263 102.20839844 35.25 106.3125 C34.59 106.3125 33.93 106.3125 33.25 106.3125 C33.25 106.9725 33.25 107.6325 33.25 108.3125 C32.59 108.3125 31.93 108.3125 31.25 108.3125 C31.25 108.9725 31.25 109.6325 31.25 110.3125 C28.34451118 112.35419485 26.84857954 113.3125 23.25 113.3125 C23.25 113.9725 23.25 114.6325 23.25 115.3125 C15.18923569 117.97191831 7.89772344 118.75203038 -0.5625 118.625 C-1.65498047 118.62822266 -2.74746094 118.63144531 -3.87304688 118.63476562 C-9.22166006 118.59895629 -13.75793187 118.44065583 -18.75 116.3125 C-20.544375 115.755625 -20.544375 115.755625 -22.375 115.1875 C-30.56012704 112.09639229 -37.74857325 106.57440534 -43.75 100.3125 C-44.348125 99.755625 -44.94625 99.19875 -45.5625 98.625 C-46.75 97.3125 -46.75 97.3125 -46.75 95.3125 C-47.41 95.3125 -48.07 95.3125 -48.75 95.3125 C-50.79169485 92.40701118 -51.75 90.91107954 -51.75 87.3125 C-52.41 87.3125 -53.07 87.3125 -53.75 87.3125 C-54.46614583 85.39192708 -55.18229167 83.47135417 -55.8984375 81.55078125 C-56.49532789 79.98189045 -57.13903924 78.4303927 -57.81640625 76.89453125 C-58.83391643 74.08041313 -59.11957992 71.6674995 -59.3125 68.6875 C-59.51951698 65.60336955 -59.76721121 63.26086636 -60.75 60.3125 C-60.42 59.3225 -60.09 58.3325 -59.75 57.3125 C-59.5740908 55.37749882 -59.43202921 53.43930049 -59.3125 51.5 C-58.96978935 47.1080312 -58.42889582 43.41646757 -56.75 39.3125 C-56.20551981 37.85521478 -55.66398476 36.39682667 -55.125 34.9375 C-54.67125 33.74125 -54.2175 32.545 -53.75 31.3125 C-53.09 31.3125 -52.43 31.3125 -51.75 31.3125 C-51.62625 30.508125 -51.62625 30.508125 -51.5 29.6875 C-49.27870202 22.65338974 -43.30317885 16.91458192 -37.75 12.3125 C-36.76 12.3125 -35.77 12.3125 -34.75 12.3125 C-34.75 11.6525 -34.75 10.9925 -34.75 10.3125 C-34.09 10.3125 -33.43 10.3125 -32.75 10.3125 C-32.75 9.6525 -32.75 8.9925 -32.75 8.3125 C-29.02034861 6.27814469 -27.08094958 5.3125 -22.75 5.3125 C-22.75 4.6525 -22.75 3.9925 -22.75 3.3125 C-15.03147615 0.81371772 -8.09439433 -0.13401315 0 0 Z " fill="#030303" transform="translate(1279.75,692.6875)"/>
<path d="M0 0 C0.99 0.33 1.98 0.66 3 1 C3.66 0.67 4.32 0.34 5 0 C4.8125 2.25 4.8125 2.25 4 5 C2.34614767 6.34919532 0.678298 7.68133728 -1 9 C-1.515625 10.03125 -2.03125 11.0625 -2.5625 12.125 C-4.08816928 15.17633856 -4.84922139 15.91352462 -8 17 C-8.33 16.34 -8.66 15.68 -9 15 C-9.99 15.495 -9.99 15.495 -11 16 C-9.25731793 12.03935893 -6.85325271 8.25563451 -4 5 C-3.34 5 -2.68 5 -2 5 C-1.34 3.35 -0.68 1.7 0 0 Z " fill="#0C0C0B" transform="translate(1144,573)"/>
<path d="M0 0 C1.2065625 0.0309375 1.2065625 0.0309375 2.4375 0.0625 C2.1075 1.0525 1.7775 2.0425 1.4375 3.0625 C0.7775 3.0625 0.1175 3.0625 -0.5625 3.0625 C-0.81 3.825625 -1.0575 4.58875 -1.3125 5.375 C-2.67245558 8.2989045 -3.87835826 9.36254356 -6.5625 11.0625 C-6.2325 9.4125 -5.9025 7.7625 -5.5625 6.0625 C-4.9025 6.0625 -4.2425 6.0625 -3.5625 6.0625 C-3.583125 5.258125 -3.60375 4.45375 -3.625 3.625 C-3.54067676 0.16774696 -3.45725304 0.08432324 0 0 Z " fill="#121212" transform="translate(1304.5625,554.9375)"/>
<path d="M0 0 C1.32 0.33 2.64 0.66 4 1 C4 4.57575896 2.91159393 6.05295935 1 9 C0.34 8.67 -0.32 8.34 -1 8 C-1 7.34 -1 6.68 -1 6 C-1.99 6.99 -2.98 7.98 -4 9 C-2.94124926 5.59687262 -1.99097846 2.98646769 0 0 Z " fill="#101010" transform="translate(1744,581)"/>
<path d="M0 0 C0.99 0.33 1.98 0.66 3 1 C3 1.66 3 2.32 3 3 C3.66 3 4.32 3 5 3 C5.66 4.32 6.32 5.64 7 7 C4.69 7 2.38 7 0 7 C0 4.69 0 2.38 0 0 Z " fill="#1B1B19" transform="translate(1225,850)"/>
<path d="M0 0 C1.25050287 2.50100574 1.02993449 4.00343052 0.87890625 6.7890625 C0.83056641 7.73007812 0.78222656 8.67109375 0.73242188 9.640625 C0.67634766 10.62546875 0.62027344 11.6103125 0.5625 12.625 C0.51029297 13.61757813 0.45808594 14.61015625 0.40429688 15.6328125 C0.27441051 18.08884568 0.13943836 20.5444936 0 23 C-0.33 23 -0.66 23 -1 23 C-3.22173569 15.27519592 -2.98846876 8.78710025 -1 1 C-0.67 0.67 -0.34 0.34 0 0 Z " fill="#161616" transform="translate(1222,740)"/>
<path d="M0 0 C0.99 0 1.98 0 3 0 C1.7580393 3.43927579 0.44259716 6.25207819 -2 9 C-2.66 9 -3.32 9 -4 9 C-4 7.02 -4 5.04 -4 3 C-2.68 3 -1.36 3 0 3 C0 2.01 0 1.02 0 0 Z " fill="#111111" transform="translate(1230,643)"/>
<path d="M0 0 C0.66 0.33 1.32 0.66 2 1 C2 2.65 2 4.3 2 6 C0.1875 7.0625 0.1875 7.0625 -2 8 C-2.99 7.67 -3.98 7.34 -5 7 C-1.125 1.125 -1.125 1.125 0 0 Z " fill="#1A1A19" transform="translate(1090,645)"/>
<path d="M0 0 C1.485 0.99 1.485 0.99 3 2 C3 2.99 3 3.98 3 5 C3.66 5 4.32 5 5 5 C5 6.98 5 8.96 5 11 C1.94259517 8.24833565 0.15249839 5.98135808 -1 2 C-0.67 1.34 -0.34 0.68 0 0 Z " fill="#151515" transform="translate(1231,776)"/>
<path d="M0 0 C0.66 0.33 1.32 0.66 2 1 C1.01 3.31 0.02 5.62 -1 8 C-2.32 7.67 -3.64 7.34 -5 7 C-3.35 4.69 -1.7 2.38 0 0 Z " fill="#1A1A19" transform="translate(1236,465)"/>
<path d="M0 0 C0.99 0.33 1.98 0.66 3 1 C1.52307692 5.67692308 1.52307692 5.67692308 -1.125 7.3125 C-2.053125 7.6528125 -2.053125 7.6528125 -3 8 C-2.625 6.0625 -2.625 6.0625 -2 4 C-1.34 3.67 -0.68 3.34 0 3 C0 2.01 0 1.02 0 0 Z " fill="#101010" transform="translate(1336,514)"/>
<path d="M0 0 C0.66 0 1.32 0 2 0 C2 1.65 2 3.3 2 5 C0.68 5.33 -0.64 5.66 -2 6 C-1.125 1.125 -1.125 1.125 0 0 Z " fill="#181818" transform="translate(1449,478)"/>
<path d="M0 0 C0.33 0.99 0.66 1.98 1 3 C-0.65 4.65 -2.3 6.3 -4 8 C-4 4.09161134 -2.49432124 2.88405893 0 0 Z " fill="#1E1E1C" transform="translate(1148,573)"/>
<path d="M0 0 C0.99 0 1.98 0 3 0 C3 0.99 3 1.98 3 3 C2.34 3 1.68 3 1 3 C1 3.99 1 4.98 1 6 C0.34 6 -0.32 6 -1 6 C-1.042721 4.33388095 -1.04063832 2.66617115 -1 1 C-0.67 0.67 -0.34 0.34 0 0 Z " fill="#141414" transform="translate(1714,834)"/>
<path d="M0 0 C0.66 0 1.32 0 2 0 C2 1.65 2 3.3 2 5 C1.01 5.33 0.02 5.66 -1 6 C-1.33 5.01 -1.66 4.02 -2 3 C-1.34 2.01 -0.68 1.02 0 0 Z " fill="#171715" transform="translate(1442,486)"/>
</svg>
